RobotoSerifText-RegularWdth500.ufo
<glyph name="Q" format="2">
  <advance width="657"/>
  <unicode hex="0051"/>
  <outline>
    <contour>
      <point x="295.525" y="1.2000000000000002" type="line"/>
      <point x="290.810000347985" y="-130.2"/>
      <point x="367.8125" y="-183.0"/>
      <point x="477.0425" y="-183.0" type="curve" smooth="yes"/>
      <point x="518.3975" y="-183.0"/>
      <point x="558.3475" y="-176.2"/>
      <point x="595.3025" y="-165.2" type="curve"/>
      <point x="595.3025" y="-84.6" type="line"/>
      <point x="555.1075" y="-100.2"/>
      <point x="522.09" y="-113.8"/>
      <point x="465.735" y="-113.8" type="curve" smooth="yes"/>
      <point x="398.9475" y="-113.8"/>
      <point x="352.135013895555" y="-79.2"/>
      <point x="356.0875" y="9.8" type="curve"/>
    </contour>
    <contour>
      <point x="328.3075" y="-10.0" type="curve" smooth="yes"/>
      <point x="492.89750000000004" y="-10.0"/>
      <point x="619.54" y="139.0"/>
      <point x="619.54" y="355.0" type="curve" smooth="yes"/>
      <point x="619.54" y="572.0"/>
      <point x="492.89750000000004" y="720.0"/>
      <point x="328.3075" y="720.0" type="curve" smooth="yes"/>
      <point x="164.575" y="720.0"/>
      <point x="37.48" y="572.0"/>
      <point x="37.48" y="355.0" type="curve" smooth="yes"/>
      <point x="37.48" y="139.0"/>
      <point x="164.575" y="-10.0"/>
    </contour>
    <contour>
      <point x="328.3075" y="44.0" type="curve" smooth="yes"/>
      <point x="214.79250000000002" y="44.0"/>
      <point x="133.3275" y="164.4"/>
      <point x="133.3275" y="355.0" type="curve" smooth="yes"/>
      <point x="133.3275" y="545.6"/>
      <point x="214.79250000000002" y="666.0"/>
      <point x="328.3075" y="666.0" type="curve" smooth="yes"/>
      <point x="441.775" y="666.0"/>
      <point x="523.6925" y="545.6"/>
      <point x="523.6925" y="355.0" type="curve" smooth="yes"/>
      <point x="523.6925" y="164.4"/>
      <point x="441.775" y="44.0"/>
    </contour>
  </outline>
</glyph>
<glyph name="u" format="2">
  <advance width="523"/>
  <unicode hex="0075"/>
  <anchor x="243.0" y="551.0" name="top"/>
  <anchor x="378" y="0.0" name="right"/>
  <anchor x="240" y="0.0" name="bottom"/>
  <outline>
    <contour>
      <point x="169" y="508" type="line"/>
      <point x="16" y="508" type="line"/>
      <point x="16" y="466" type="line"/>
      <point x="25" y="464" type="line"/>
      <point x="65" y="458"/>
      <point x="83" y="450"/>
      <point x="83" y="421" type="curve" smooth="yes"/>
      <point x="83" y="151" type="line" smooth="yes"/>
      <point x="83" y="40"/>
      <point x="136" y="-10"/>
      <point x="218" y="-10" type="curve" smooth="yes"/>
      <point x="285" y="-10"/>
      <point x="331" y="26"/>
      <point x="373" y="100" type="curve"/>
      <point x="373" y="163" type="line"/>
      <point x="334" y="88"/>
      <point x="291" y="47"/>
      <point x="237" y="47" type="curve" smooth="yes"/>
      <point x="186" y="47"/>
      <point x="169" y="83"/>
      <point x="169" y="162" type="curve" smooth="yes"/>
    </contour>
    <contour>
      <point x="439" y="508" type="line"/>
      <point x="276" y="508" type="line"/>
      <point x="276" y="466" type="line"/>
      <point x="293" y="463" type="line"/>
      <point x="333" y="458"/>
      <point x="353" y="450"/>
      <point x="353" y="421" type="curve" smooth="yes"/>
      <point x="353" y="117" type="line"/>
      <point x="361" y="107" type="line"/>
      <point x="361" y="0" type="line"/>
      <point x="505" y="0" type="line"/>
      <point x="505" y="41" type="line"/>
      <point x="503" y="41" type="line" smooth="yes"/>
      <point x="465" y="41"/>
      <point x="439" y="48"/>
      <point x="439" y="77" type="curve" smooth="yes"/>
    </contour>
  </outline>
</glyph>
<glyph name="v" format="2">
  <advance width="479"/>
  <unicode hex="0076"/>
  <outline>
    <contour>
      <point x="368" y="447" type="curve"/>
      <point x="253" y="49" type="line"/>
      <point x="263" y="50" type="line"/>
      <point x="142" y="457" type="line"/>
      <point x="142" y="464"/>
      <point x="178" y="466"/>
      <point x="212" y="466" type="curve" smooth="yes"/>
      <point x="213" y="466" type="line"/>
      <point x="213" y="508" type="line"/>
      <point x="4" y="508" type="line"/>
      <point x="4" y="466" type="line"/>
      <point x="6" y="466" type="line" smooth="yes"/>
      <point x="36" y="466"/>
      <point x="55" y="459"/>
      <point x="64" y="432" type="curve" smooth="yes"/>
      <point x="198" y="0" type="line"/>
      <point x="286" y="0" type="line"/>
      <point x="416" y="426" type="line" smooth="yes"/>
      <point x="426" y="458"/>
      <point x="450" y="466"/>
      <point x="474" y="466" type="curve" smooth="yes"/>
      <point x="475" y="466" type="line"/>
      <point x="475" y="508" type="line"/>
      <point x="301" y="508" type="line"/>
      <point x="301" y="466" type="line"/>
      <point x="303" y="466" type="line" smooth="yes"/>
      <point x="334" y="466"/>
      <point x="367" y="458"/>
    </contour>
  </outline>
</glyph>
<glyph name="w" format="2">
  <advance width="686"/>
  <unicode hex="0077"/>
  <anchor x="346.165" y="551.0" name="top"/>
  <outline>
    <contour>
      <point x="348.35" y="422.4" type="line"/>
      <point x="251.60250000000002" y="0.0" type="line"/>
      <point x="166.345" y="0.0" type="line"/>
      <point x="58.4325" y="435.0" type="line" smooth="yes"/>
      <point x="52.17" y="460.0"/>
      <point x="30.405" y="466.0"/>
      <point x="5.285" y="466.0" type="curve"/>
      <point x="4.2375" y="466.0" type="line"/>
      <point x="4.2375" y="508.0" type="line"/>
      <point x="211.26749999999998" y="508.0" type="line"/>
      <point x="211.26749999999998" y="466.0" type="line"/>
      <point x="209.3625" y="466.0" type="line" smooth="yes"/>
      <point x="173.16750000000002" y="466.0"/>
      <point x="139.1875" y="464.0"/>
      <point x="139.1875" y="457.0" type="curve"/>
      <point x="229.865" y="52.800000000000004" type="line"/>
      <point x="217.585" y="51.800000000000004" type="line"/>
      <point x="322.28" y="508.0" type="line"/>
      <point x="390.565" y="508.0" type="line"/>
      <point x="496.2875" y="53.0" type="line"/>
      <point x="485.65250000000003" y="52.0" type="line"/>
      <point x="574.515" y="445.0" type="line"/>
      <point x="572.705" y="458.0"/>
      <point x="544.2025" y="466.0"/>
      <point x="507.7925" y="466.0" type="curve" smooth="yes"/>
      <point x="505.8875" y="466.0" type="line"/>
      <point x="505.8875" y="508.0" type="line"/>
      <point x="681.99" y="508.0" type="line"/>
      <point x="681.99" y="466.0" type="line"/>
      <point x="681.395" y="466.0" type="line"/>
      <point x="656.75" y="466.0"/>
      <point x="630.675" y="454.0"/>
      <point x="623.365" y="423.0" type="curve" smooth="yes"/>
      <point x="521.9300000000001" y="0.0" type="line"/>
      <point x="436.625" y="0.0" type="line"/>
      <point x="335.16" y="424.8" type="line"/>
    </contour>
  </outline>
</glyph>
<glyph name="AE" format="2">
  <advance width="812.385"/>
  <unicode hex="00C6"/>
  <anchor x="503.26" y="741.0" name="top"/>
  <outline>
    <contour>
      <point x="7.620000000000001" y="0.0" type="line"/>
      <point x="197.55249999999998" y="0.0" type="line"/>
      <point x="197.55249999999998" y="43.6" type="line"/>
      <point x="185.83749999999998" y="43.6" type="line" smooth="yes"/>
      <point x="155.43" y="43.6"/>
      <point x="119.5675" y="50.6"/>
      <point x="119.5675" y="61.6" type="curve"/>
      <point x="203.79" y="250.4" type="line"/>
      <point x="397.2025" y="250.4" type="line"/>
      <point x="397.2025" y="53.6" type="line" smooth="yes"/>
      <point x="397.2025" y="46.6"/>
      <point x="359.125" y="43.6"/>
      <point x="328.67" y="43.6" type="curve" smooth="yes"/>
      <point x="321.075" y="43.6" type="line"/>
      <point x="321.075" y="0.0" type="line"/>
      <point x="766.235" y="0.0" type="line"/>
      <point x="766.235" y="211.2" type="line"/>
      <point x="716.48" y="211.2" type="line"/>
      <point x="708.8375" y="96.2" type="line" smooth="yes"/>
      <point x="706.2425000000001" y="60.2"/>
      <point x="676.86" y="53.2"/>
      <point x="606.62" y="53.2" type="curve" smooth="yes"/>
      <point x="485.9075" y="53.2" type="line"/>
      <point x="485.9075" y="338.8" type="line"/>
      <point x="662.49" y="332.4" type="line"/>
      <point x="662.49" y="394.0" type="line"/>
      <point x="485.9075" y="387.6" type="line"/>
      <point x="485.9075" y="656.8" type="line"/>
      <point x="585.495" y="656.8" type="line" smooth="yes"/>
      <point x="653.24" y="656.8"/>
      <point x="682.2875" y="649.8"/>
      <point x="685.645" y="613.8" type="curve" smooth="yes"/>
      <point x="692.8125" y="523.8" type="line"/>
      <point x="741.4725000000001" y="523.8" type="line"/>
      <point x="741.4725000000001" y="710.0" type="line"/>
      <point x="240.66" y="710.0" type="line"/>
      <point x="240.66" y="666.4" type="line"/>
      <point x="250.3725" y="666.4" type="line" smooth="yes"/>
      <point x="291.8225" y="666.4"/>
      <point x="330.66" y="659.4"/>
      <point x="330.755" y="637.4" type="curve"/>
      <point x="68.5275" y="86.6" type="line" smooth="yes"/>
      <point x="51.7175" y="51.8"/>
      <point x="41.432500000000005" y="43.6"/>
      <point x="12.072500000000002" y="43.6" type="curve" smooth="yes"/>
      <point x="7.620000000000001" y="43.6" type="line"/>
    </contour>
    <contour>
      <point x="229.71499999999997" y="298.0" type="line"/>
      <point x="397.2025" y="658.6" type="line"/>
      <point x="397.2025" y="298.0" type="line"/>
    </contour>
  </outline>
</glyph>
<glyph name="Oslash" format="2">
  <advance width="656.115"/>
  <unicode hex="00D8"/>
  <anchor x="326.5" y="731.0" name="top"/>
  <outline>
    <contour>
      <point x="569.525" y="724.0" type="line"/>
      <point x="4.1725" y="-14.0" type="line"/>
      <point x="76.855" y="-14.0" type="line"/>
      <point x="642.2075" y="724.0" type="line"/>
    </contour>
    <contour>
      <point x="328.3075" y="-10.0" type="curve" smooth="yes"/>
      <point x="492.89750000000004" y="-10.0"/>
      <point x="619.54" y="139.0"/>
      <point x="619.54" y="355.0" type="curve" smooth="yes"/>
      <point x="619.54" y="572.0"/>
      <point x="491.33000000000004" y="720.0"/>
      <point x="328.3075" y="720.0" type="curve" smooth="yes"/>
      <point x="163.67000000000002" y="720.0"/>
      <point x="37.48" y="572.0"/>
      <point x="37.48" y="355.0" type="curve" smooth="yes"/>
      <point x="37.48" y="139.0"/>
      <point x="165.57" y="-10.0"/>
    </contour>
    <contour>
      <point x="327.88" y="44.0" type="curve" smooth="yes"/>
      <point x="205.591465517225" y="44.0"/>
      <point x="132.04500000000002" y="146.4"/>
      <point x="132.04500000000002" y="355.0" type="curve" smooth="yes"/>
      <point x="132.04500000000002" y="545.6"/>
      <point x="213.14936507935" y="666.0"/>
      <point x="328.6875" y="666.0" type="curve" smooth="yes"/>
      <point x="451.023534482775" y="666.0"/>
      <point x="524.975" y="563.6"/>
      <point x="524.975" y="355.0" type="curve" smooth="yes"/>
      <point x="524.975" y="164.4"/>
      <point x="442.51313492065003" y="44.0"/>
    </contour>
  </outline>
</glyph>
<glyph name="Ldot" format="2">
  <advance width="516"/>
  <unicode hex="013F"/>
  <outline>
    <contour>
      <point x="280.44" y="710.0" type="line"/>
      <point x="280.44" y="666.4" type="line"/>
      <point x="271.06" y="666.4" type="line" smooth="yes"/>
      <point x="230.0075" y="666.4"/>
      <point x="200.9325" y="659.4"/>
      <point x="200.9325" y="630.4" type="curve" smooth="yes"/>
      <point x="200.9325" y="53.2" type="line"/>
      <point x="316.2825" y="53.2" type="line" smooth="yes"/>
      <point x="386.38" y="53.2"/>
      <point x="416.0" y="60.2"/>
      <point x="418.5475" y="96.2" type="curve" smooth="yes"/>
      <point x="425.69" y="218.2" type="line"/>
      <point x="479.08500000000004" y="218.2" type="line"/>
      <point x="479.08500000000004" y="0.0" type="line"/>
      <point x="35.195" y="0.0" type="line"/>
      <point x="35.195" y="43.6" type="line"/>
      <point x="44.1475" y="43.6" type="line" smooth="yes"/>
      <point x="82.7475" y="43.6"/>
      <point x="111.32249999999999" y="50.6"/>
      <point x="111.32249999999999" y="79.6" type="curve" smooth="yes"/>
      <point x="111.32249999999999" y="630.4" type="line" smooth="yes"/>
      <point x="111.32249999999999" y="659.4"/>
      <point x="82.7475" y="666.4"/>
      <point x="44.1475" y="666.4" type="curve" smooth="yes"/>
      <point x="35.195" y="666.4" type="line"/>
      <point x="35.195" y="710.0" type="line"/>
    </contour>
    <component base="periodcentered" xOffset="321.145" yOffset="49"/>
  </outline>
</glyph>
<glyph name="Lslash" format="2">
  <advance width="513"/>
  <unicode hex="0141"/>
  <outline>
    <contour>
      <point x="34.055" y="196.0" type="line"/>
      <point x="34.055" y="260.0" type="line"/>
      <point x="373.755" y="524.8" type="line"/>
      <point x="373.755" y="460.8" type="line"/>
    </contour>
    <component base="L" xOffset="-52.955"/>
  </outline>
</glyph>
<glyph name="Schwa" format="2">
  <advance width="588.225"/>
  <unicode hex="018F"/>
  <outline>
    <contour>
      <point x="283.4475" y="720.0" type="curve" smooth="yes"/>
      <point x="164.66750000000002" y="720.0"/>
      <point x="89.145" y="648.0"/>
      <point x="43.739999999999995" y="558.2" type="curve"/>
      <point x="92.33" y="522.2" type="line"/>
      <point x="125.13999999999999" y="590.6"/>
      <point x="182.785" y="666.0"/>
      <point x="277.8125" y="666.0" type="curve" smooth="yes"/>
      <point x="386.8875" y="666.0"/>
      <point x="456.7075" y="554.7382550336"/>
      <point x="456.7075" y="356.8" type="curve" smooth="yes"/>
      <point x="456.7075" y="164.3230503393"/>
      <point x="382.8375" y="43.8"/>
      <point x="288.77750000000003" y="43.8" type="curve" smooth="yes"/>
      <point x="183.35750000000002" y="43.8"/>
      <point x="134.5615911933" y="140.2133445428"/>
      <point x="131.9925" y="340.8" type="curve"/>
      <point x="109.6125" y="321.0" type="line"/>
      <point x="508.475" y="321.0" type="line"/>
      <point x="506.975" y="375.0" type="line"/>
      <point x="37.48" y="375.0" type="line"/>
      <point x="38.03222577682925" y="118.5305645368"/>
      <point x="125.8575" y="-10.2"/>
      <point x="288.77750000000003" y="-10.2" type="curve" smooth="yes"/>
      <point x="436.01" y="-10.2"/>
      <point x="551.15" y="140.6549450548"/>
      <point x="551.15" y="357.8" type="curve" smooth="yes"/>
      <point x="551.15" y="579.6207650272"/>
      <point x="441.08" y="720.0"/>
    </contour>
  </outline>
</glyph>
<glyph name="circumflex" format="2">
  <advance width="412.095"/>
  <unicode hex="02C6"/>
  <anchor x="202.0" y="529.0" name="_top"/>
  <outline>
    <contour>
      <point x="243.0575" y="738.2" type="line"/>
      <point x="333.77" y="586.2" type="line"/>
      <point x="333.77" y="576.2" type="line"/>
      <point x="292.305" y="576.2" type="line"/>
      <point x="190.675" y="693.2" type="line"/>
      <point x="217.0075" y="693.2" type="line"/>
      <point x="115.235" y="576.2" type="line"/>
      <point x="81.865" y="576.2" type="line"/>
      <point x="81.865" y="586.2" type="line"/>
      <point x="172.625" y="738.2" type="line"/>
    </contour>
  </outline>
</glyph>
<glyph name="verticallinelowmod" format="2">
  <advance width="412.0"/>
  <unicode hex="02CC"/>
  <outline>
    <contour>
      <point x="174.22" y="-250.0" type="line"/>
      <point x="238.185" y="-250.0" type="line"/>
      <point x="238.185" y="-47.0" type="line"/>
      <point x="174.22" y="-47.0" type="line"/>
    </contour>
  </outline>
</glyph>
<glyph name="dotaccent" format="2">
  <advance width="412.0475"/>
  <unicode hex="02D9"/>
  <anchor x="206.0" y="526.0" name="_top"/>
  <outline>
    <contour>
      <point x="205.85750000000002" y="626.6" type="curve" smooth="yes"/>
      <point x="238.325" y="626.6"/>
      <point x="261.2975" y="647.8"/>
      <point x="261.2975" y="683.4" type="curve" smooth="yes"/>
      <point x="261.2975" y="718.2"/>
      <point x="238.325" y="739.4"/>
      <point x="205.85750000000002" y="739.4" type="curve" smooth="yes"/>
      <point x="173.9375" y="739.4"/>
      <point x="150.9175" y="718.2"/>
      <point x="150.9175" y="683.4" type="curve" smooth="yes"/>
      <point x="150.9175" y="647.8"/>
      <point x="173.9375" y="626.6"/>
    </contour>
  </outline>
</glyph>
<glyph name="ring" format="2">
  <advance width="412.0"/>
  <unicode hex="02DA"/>
  <anchor x="206.0" y="526.0" name="_top"/>
  <outline>
    <contour>
      <point x="160.7575" y="671.4" type="curve" smooth="yes"/>
      <point x="160.7575" y="713.6"/>
      <point x="180.9975" y="734.8"/>
      <point x="206.0" y="734.8" type="curve" smooth="yes"/>
      <point x="231.5975" y="734.8"/>
      <point x="251.7425" y="713.6"/>
      <point x="251.7425" y="671.4" type="curve" smooth="yes"/>
      <point x="251.7425" y="629.2"/>
      <point x="231.645" y="608.0"/>
      <point x="206.0" y="608.0" type="curve" smooth="yes"/>
      <point x="180.95" y="608.0"/>
      <point x="160.7575" y="629.2"/>
    </contour>
    <contour>
      <point x="303.065" y="671.4" type="curve" smooth="yes"/>
      <point x="303.065" y="732.6"/>
      <point x="259.772779720295" y="768.0"/>
      <point x="206.0" y="768.0" type="curve" smooth="yes"/>
      <point x="152.727220279705" y="768.0"/>
      <point x="109.435" y="732.6"/>
      <point x="109.435" y="671.4" type="curve" smooth="yes"/>
      <point x="109.435" y="610.2"/>
      <point x="152.727220279705" y="574.8"/>
      <point x="206.0" y="574.8" type="curve" smooth="yes"/>
      <point x="259.772779720295" y="574.8"/>
      <point x="303.065" y="610.2"/>
    </contour>
  </outline>
</glyph>
<glyph name="bullet" format="2">
  <advance width="343.235"/>
  <unicode hex="2022"/>
  <outline>
    <contour>
      <point x="55.625" y="337.0" type="curve" smooth="yes"/>
      <point x="55.625" y="263.4"/>
      <point x="103.86" y="212.8"/>
      <point x="171.6175" y="212.8" type="curve" smooth="yes"/>
      <point x="239.3275" y="212.8"/>
      <point x="287.61" y="263.4"/>
      <point x="287.61" y="337.0" type="curve" smooth="yes"/>
      <point x="287.61" y="410.6"/>
      <point x="239.3275" y="461.2"/>
      <point x="171.6175" y="461.2" type="curve" smooth="yes"/>
      <point x="103.86" y="461.2"/>
      <point x="55.625" y="410.6"/>
    </contour>
  </outline>
</glyph>
<glyph name="lira" format="2">
  <advance width="462.0"/>
  <unicode hex="20A4"/>
  <outline>
    <contour>
      <point x="23.8125" y="436.8" type="line"/>
      <point x="23.8125" y="389.2" type="line"/>
      <point x="334.8725" y="389.2" type="line"/>
      <point x="334.8725" y="436.8" type="line"/>
    </contour>
    <contour>
      <point x="23.8125" y="281.8" type="line"/>
      <point x="23.8125" y="234.2" type="line"/>
      <point x="334.8725" y="234.2" type="line"/>
      <point x="334.8725" y="281.8" type="line"/>
    </contour>
    <contour>
      <point x="10.2375" y="-11.0" type="line"/>
      <point x="139.395" y="21.2"/>
      <point x="202.9125" y="109.2"/>
      <point x="202.9125" y="233.2" type="curve" smooth="yes"/>
      <point x="202.9125" y="348.2"/>
      <point x="153.3125" y="411.4"/>
      <point x="153.3125" y="525.8" type="curve" smooth="yes"/>
      <point x="153.3125" y="611.0"/>
      <point x="198.845" y="664.0"/>
      <point x="262.6875" y="664.0" type="curve" smooth="yes"/>
      <point x="315.84" y="664.0"/>
      <point x="349.155" y="634.4"/>
      <point x="372.0875" y="605.4" type="curve"/>
      <point x="373.6775" y="620.8"/>
      <point x="366.53" y="647.6"/>
      <point x="343.0825" y="649.4" type="curve"/>
      <point x="343.0825" y="544.4" type="line"/>
      <point x="421.235" y="544.4" type="line"/>
      <point x="421.235" y="657.4" type="line"/>
      <point x="398.3775" y="681.8"/>
      <point x="343.83" y="718.0"/>
      <point x="261.405" y="718.0" type="curve" smooth="yes"/>
      <point x="143.5775" y="718.0"/>
      <point x="65.695" y="638.2"/>
      <point x="65.695" y="520.8" type="curve" smooth="yes"/>
      <point x="65.695" y="407.4"/>
      <point x="131.24" y="334.2"/>
      <point x="131.24" y="218.2" type="curve" smooth="yes"/>
      <point x="131.24" y="131.2"/>
      <point x="98.4325" y="80.2"/>
      <point x="10.2375" y="47.8" type="curve"/>
    </contour>
    <contour>
      <point x="124.235" y="117.6" type="line"/>
      <point x="211.1597367565925" y="36.445245771879996"/>
      <point x="249.994862288335" y="-10.0"/>
      <point x="313.6425" y="-10.0" type="curve" smooth="yes"/>
      <point x="396.81" y="-10.0"/>
      <point x="441.8575" y="74.4"/>
      <point x="456.57" y="169.2" type="curve"/>
      <point x="407.815" y="186.2" type="line"/>
      <point x="392.505" y="110.35140296809"/>
      <point x="366.0025" y="70.80000000000001"/>
      <point x="317.28499999999997" y="70.80000000000001" type="curve" smooth="yes"/>
      <point x="272.93951219528753" y="70.80000000000001"/>
      <point x="219.27299799907752" y="98.37822655080001"/>
      <point x="156.465" y="163.0" type="curve"/>
    </contour>
  </outline>
</glyph>
<glyph name="peseta" format="2">
  <advance width="462.0"/>
  <unicode hex="20A7"/>
  <outline>
    <contour>
      <point x="3.022499999999999" y="0.0" type="line"/>
      <point x="160.115" y="0.0" type="line"/>
      <point x="160.115" y="43.6" type="line"/>
      <point x="151.59" y="43.6" type="line" smooth="yes"/>
      <point x="136.9225" y="43.6"/>
      <point x="112.9675" y="46.6"/>
      <point x="112.9675" y="53.6" type="curve" smooth="yes"/>
      <point x="112.9675" y="259.8" type="line"/>
      <point x="125.5175" y="259.8" type="line" smooth="yes"/>
      <point x="231.0675" y="259.8"/>
      <point x="286.6875" y="353.6"/>
      <point x="286.6875" y="488.4" type="curve" smooth="yes"/>
      <point x="286.6875" y="623.2"/>
      <point x="233.7825" y="710.0"/>
      <point x="128.32999999999998" y="710.0" type="curve" smooth="yes"/>
      <point x="3.022499999999999" y="710.0" type="line"/>
      <point x="3.022499999999999" y="666.4" type="line"/>
      <point x="6.7375" y="666.4" type="line" smooth="yes"/>
      <point x="24.2875" y="666.4"/>
      <point x="35.67" y="659.4"/>
      <point x="35.67" y="630.4" type="curve" smooth="yes"/>
      <point x="35.67" y="79.6" type="line" smooth="yes"/>
      <point x="35.67" y="50.6"/>
      <point x="24.2875" y="43.6"/>
      <point x="6.7375" y="43.6" type="curve" smooth="yes"/>
      <point x="3.022499999999999" y="43.6" type="line"/>
    </contour>
    <contour>
      <point x="130.6375" y="658.4" type="line" smooth="yes"/>
      <point x="187.0525" y="658.4"/>
      <point x="207.7225" y="594.6"/>
      <point x="207.7225" y="487.4" type="curve" smooth="yes"/>
      <point x="207.7225" y="380.6"/>
      <point x="186.29" y="309.8"/>
      <point x="127.0175" y="309.8" type="curve" smooth="yes"/>
      <point x="112.9675" y="309.8" type="line"/>
      <point x="112.9675" y="658.4" type="line"/>
    </contour>
    <contour>
      <point x="264.3325" y="456.4" type="line"/>
      <point x="459.595" y="456.4" type="line"/>
      <point x="459.595" y="508.0" type="line"/>
      <point x="364.5025" y="508.0" type="line"/>
      <point x="335.3125" y="570.6" type="line"/>
      <point x="335.3125" y="513.6"/>
      <point x="319.24" y="503.0"/>
      <point x="290.1675" y="503.0" type="curve" smooth="yes"/>
      <point x="264.3325" y="503.0" type="line"/>
    </contour>
    <contour>
      <point x="395.3975" y="108.6" type="curve" smooth="yes"/>
      <point x="395.3975" y="648.0" type="line"/>
      <point x="335.3125" y="648.0" type="line"/>
      <point x="335.3125" y="500.0" type="line"/>
      <point x="321.125" y="492.0" type="line"/>
      <point x="321.125" y="109.4" type="line" smooth="yes"/>
      <point x="321.125" y="21.6"/>
      <point x="358.029326923055" y="-11.0"/>
      <point x="419.05" y="-11.0" type="curve" smooth="yes"/>
      <point x="439.12" y="-11.0"/>
      <point x="451.71500000000003" y="-7.4"/>
      <point x="459.595" y="-3.8000000000000007" type="curve"/>
      <point x="459.595" y="50.6" type="line"/>
      <point x="452.1175" y="46.8"/>
      <point x="442.26" y="43.6"/>
      <point x="432.735" y="43.6" type="curve" smooth="yes"/>
      <point x="407.4225" y="43.6"/>
      <point x="395.3975" y="63.2"/>
    </contour>
  </outline>
</glyph>
<glyph name="dong" format="2">
  <advance width="462.0"/>
  <unicode hex="20AB"/>
  <outline>
    <contour>
      <point x="117.9075" y="250.0" type="curve" smooth="yes"/>
      <point x="117.9075" y="380.8"/>
      <point x="150.5404487179475" y="466.4"/>
      <point x="212.6625" y="466.4" type="curve" smooth="yes"/>
      <point x="267.2199999999775" y="466.4"/>
      <point x="302.6075188332275" y="416.8"/>
      <point x="332.21" y="315.4" type="curve"/>
      <point x="364.4" y="337.2" type="line"/>
      <point x="319.320095497705" y="459.4"/>
      <point x="281.32" y="518.0"/>
      <point x="204.27249999999998" y="518.0" type="curve" smooth="yes"/>
      <point x="99.96000000000001" y="518.0"/>
      <point x="30.1475" y="408.8"/>
      <point x="30.1475" y="250.0" type="curve" smooth="yes"/>
      <point x="30.1475" y="93.8"/>
      <point x="97.3175" y="-11.0"/>
      <point x="199.915" y="-11.0" type="curve" smooth="yes"/>
      <point x="276.6075" y="-11.0"/>
      <point x="311.9425" y="54.8"/>
      <point x="363.2575" y="175.4" type="curve"/>
      <point x="332.9225" y="198.4" type="line"/>
      <point x="302.7975" y="98.2"/>
      <point x="265.815" y="40.6"/>
      <point x="210.1625" y="40.6" type="curve" smooth="yes"/>
      <point x="150.2" y="40.6"/>
      <point x="117.9075" y="122.4"/>
    </contour>
    <contour>
      <point x="315.28" y="735.0" type="line"/>
      <point x="315.28" y="119.4" type="line"/>
      <point x="322.255" y="116.0" type="line"/>
      <point x="322.255" y="0.0" type="line"/>
      <point x="460.8125" y="0.0" type="line"/>
      <point x="460.8125" y="41.4" type="line"/>
      <point x="458.02750000000003" y="41.4" type="line"/>
      <point x="422.3075" y="41.4"/>
      <point x="398.8025" y="48.4"/>
      <point x="398.8025" y="77.4" type="curve" smooth="yes"/>
      <point x="398.8025" y="735.0" type="line"/>
    </contour>
    <contour>
      <point x="72.2175" y="-127.6" type="line"/>
      <point x="72.2175" y="-181.6" type="line"/>
      <point x="432.765" y="-181.6" type="line"/>
      <point x="432.765" y="-127.6" type="line"/>
    </contour>
    <contour>
      <point x="177.34" y="624.2" type="line"/>
      <point x="177.34" y="576.6" type="line"/>
      <point x="473.195" y="576.6" type="line"/>
      <point x="473.195" y="624.2" type="line"/>
    </contour>
  </outline>
</glyph>
<glyph name="kip" format="2">
  <advance width="462.0"/>
  <unicode hex="20AD"/>
  <outline>
    <contour>
      <point x="11.692499999999999" y="394.8" type="line"/>
      <point x="11.692499999999999" y="347.2" type="line"/>
      <point x="415.9175" y="347.2" type="line"/>
      <point x="415.9175" y="394.8" type="line"/>
    </contour>
    <contour>
      <point x="11.692499999999999" y="0.0" type="line"/>
      <point x="203.685" y="0.0" type="line" smooth="yes"/>
      <point x="203.685" y="43.6" type="line" smooth="yes"/>
      <point x="196.66" y="43.6" type="line" smooth="yes"/>
      <point x="173.4175" y="43.6"/>
      <point x="146.745" y="46.6"/>
      <point x="146.745" y="53.6" type="curve" smooth="yes"/>
      <point x="146.745" y="656.4" type="line" smooth="yes"/>
      <point x="146.745" y="663.4"/>
      <point x="174.05875" y="666.4"/>
      <point x="197.7525" y="666.4" type="curve" smooth="yes"/>
      <point x="205.395" y="666.4" type="line" smooth="yes"/>
      <point x="205.395" y="710.0" type="line" smooth="yes"/>
      <point x="11.692499999999999" y="710.0" type="line"/>
      <point x="11.692499999999999" y="666.4" type="line"/>
      <point x="20.2175" y="666.4" type="line" smooth="yes"/>
      <point x="44.300060606060754" y="666.4"/>
      <point x="62.5325" y="659.4"/>
      <point x="62.5325" y="630.4" type="curve" smooth="yes"/>
      <point x="62.5325" y="79.6" type="line" smooth="yes"/>
      <point x="62.5325" y="50.6"/>
      <point x="44.300060606060754" y="43.6"/>
      <point x="20.2175" y="43.6" type="curve" smooth="yes"/>
      <point x="11.692499999999999" y="43.6" type="line"/>
    </contour>
    <contour>
      <point x="450.6875" y="43.6" type="line"/>
      <point x="446.0675" y="43.6" type="line" smooth="yes"/>
      <point x="425.255" y="43.6"/>
      <point x="410.0625" y="48.2"/>
      <point x="397.06" y="76.6" type="curve" smooth="yes"/>
      <point x="242.54000000000002" y="400.4" type="line"/>
      <point x="234.3125" y="359.6" type="line"/>
      <point x="379.135" y="637.4" type="line" smooth="yes"/>
      <point x="391.73" y="660.4"/>
      <point x="406.0175" y="666.4"/>
      <point x="422.4225" y="666.4" type="curve" smooth="yes"/>
      <point x="431.185" y="666.4" type="line"/>
      <point x="431.185" y="710.0" type="line"/>
      <point x="271.4225" y="710.0" type="line"/>
      <point x="271.4225" y="666.4" type="line"/>
      <point x="278.16" y="666.4" type="line" smooth="yes"/>
      <point x="299.805" y="666.4"/>
      <point x="326.9275" y="663.4"/>
      <point x="328.6425" y="656.4" type="curve"/>
      <point x="177.06" y="367.0" type="line"/>
      <point x="178.56" y="353.2" type="line"/>
      <point x="309.5375" y="53.6" type="line"/>
      <point x="309.5375" y="46.6"/>
      <point x="283.24328125" y="43.6"/>
      <point x="261.29" y="43.6" type="curve" smooth="yes"/>
      <point x="254.7175" y="43.6" type="line"/>
      <point x="254.7175" y="0.0" type="line"/>
      <point x="450.6875" y="0.0" type="line"/>
    </contour>
  </outline>
</glyph>
<glyph name="cedi" format="2">
  <advance width="462.0"/>
  <unicode hex="20B5"/>
  <outline>
    <contour>
      <point x="266.6875" y="700.0" type="curve" smooth="yes"/>
      <point x="111.2575" y="700.0"/>
      <point x="15.929999999999998" y="570.2"/>
      <point x="15.929999999999998" y="355.0" type="curve" smooth="yes"/>
      <point x="15.929999999999998" y="142.0"/>
      <point x="113.77624280559249" y="10.0"/>
      <point x="254.5425" y="10.0" type="curve" smooth="yes"/>
      <point x="360.68032678074" y="10.0"/>
      <point x="422.25490188828746" y="92.58791139524"/>
      <point x="448.33" y="227.0" type="curve"/>
      <point x="395.62" y="254.2" type="line"/>
      <point x="373.6872696429075" y="137.186005486"/>
      <point x="334.65178143731004" y="65.6"/>
      <point x="261.015" y="65.6" type="curve" smooth="yes"/>
      <point x="162.527433862295" y="65.6"/>
      <point x="105.3375" y="172.2"/>
      <point x="105.3375" y="355.0" type="curve" smooth="yes"/>
      <point x="105.3375" y="545.4"/>
      <point x="158.965" y="648.4"/>
      <point x="268.0175" y="648.4" type="curve" smooth="yes"/>
      <point x="330.7125" y="648.4"/>
      <point x="368.8825" y="611.8"/>
      <point x="387.7875" y="576.4" type="curve"/>
      <point x="395.64" y="588.8"/>
      <point x="379.8225" y="625.0"/>
      <point x="352.715" y="626.8" type="curve"/>
      <point x="352.715" y="516.0" type="line"/>
      <point x="434.16" y="516.0" type="line"/>
      <point x="434.16" y="632.8" type="line"/>
      <point x="416.2075" y="656.2"/>
      <point x="353.04" y="700.0"/>
    </contour>
    <contour>
      <point x="224.07" y="790.0" type="line"/>
      <point x="224.07" y="679.8" type="line"/>
      <point x="225.305" y="671.2" type="line"/>
      <point x="225.305" y="47.0" type="line"/>
      <point x="224.07" y="34.4" type="line"/>
      <point x="224.07" y="-120.0" type="line"/>
      <point x="277.46500000000003" y="-120.0" type="line"/>
      <point x="277.46500000000003" y="36.4" type="line"/>
      <point x="276.23" y="43.8" type="line"/>
      <point x="276.23" y="673.4" type="line"/>
      <point x="277.46500000000003" y="681.2" type="line"/>
      <point x="277.46500000000003" y="790.0" type="line"/>
    </contour>
  </outline>
</glyph>
<glyph name="ruble" format="2">
  <advance width="462.0"/>
  <unicode hex="20BD"/>
  <outline>
    <contour>
      <point x="31.7675" y="383.0" type="line"/>
      <point x="257.555" y="383.0" type="line" smooth="yes"/>
      <point x="335.4" y="383.0"/>
      <point x="372.7375" y="439.2"/>
      <point x="372.7375" y="524.4" type="curve" smooth="yes"/>
      <point x="372.7375" y="608.2"/>
      <point x="335.4" y="658.4"/>
      <point x="262.0075" y="658.4" type="curve" smooth="yes"/>
      <point x="193.515" y="658.4" type="line"/>
      <point x="193.515" y="53.6" type="line" smooth="yes"/>
      <point x="193.515" y="46.6"/>
      <point x="226.89999999999998" y="43.6"/>
      <point x="254.1175" y="43.6" type="curve" smooth="yes"/>
      <point x="274.74" y="43.6" type="line"/>
      <point x="274.74" y="0.0" type="line"/>
      <point x="31.7675" y="0.0" type="line"/>
      <point x="31.7675" y="43.6" type="line"/>
      <point x="40.3875" y="43.6" type="line" smooth="yes"/>
      <point x="78.56" y="43.6"/>
      <point x="106.35" y="50.6"/>
      <point x="106.35" y="79.6" type="curve" smooth="yes"/>
      <point x="106.35" y="630.4" type="line" smooth="yes"/>
      <point x="106.35" y="659.4"/>
      <point x="78.56" y="666.4"/>
      <point x="40.3875" y="666.4" type="curve" smooth="yes"/>
      <point x="31.7675" y="666.4" type="line"/>
      <point x="31.7675" y="710.0" type="line"/>
      <point x="263.22" y="710.0" type="line" smooth="yes"/>
      <point x="389.025" y="710.0"/>
      <point x="462.0" y="637.8"/>
      <point x="462.0" y="525.4" type="curve" smooth="yes"/>
      <point x="462.0" y="413.8"/>
      <point x="384.835" y="335.4"/>
      <point x="259.5525" y="335.4" type="curve" smooth="yes"/>
      <point x="31.7675" y="335.4" type="line"/>
    </contour>
    <contour>
      <point x="337.0525" y="179.8" type="line"/>
      <point x="31.7675" y="179.8" type="line"/>
      <point x="31.7675" y="227.4" type="line"/>
      <point x="337.0525" y="227.4" type="line"/>
    </contour>
  </outline>
</glyph>
<glyph name="hook" format="2">
  <advance width="420.5"/>
  <unicode hex="2440"/>
  <anchor x="193.0" y="517.0" name="_top"/>
  <outline>
    <contour>
      <point x="94.2" y="693.4" type="line"/>
      <point x="97.7475" y="738.4"/>
      <point x="129.5325" y="775.8"/>
      <point x="192.62" y="775.8" type="curve" smooth="yes"/>
      <point x="255.21" y="775.8"/>
      <point x="289.51750000000004" y="745.6"/>
      <point x="289.51750000000004" y="695.0" type="curve" smooth="yes"/>
      <point x="289.51750000000004" y="636.4"/>
      <point x="239.9225" y="611.2"/>
      <point x="183.43" y="605.8" type="curve"/>
      <point x="209.54500000000002" y="633.4" type="line"/>
      <point x="209.54500000000002" y="570.4" type="line"/>
      <point x="160.0775" y="570.4" type="line"/>
      <point x="160.0775" y="640.4" type="line"/>
      <point x="204.29" y="643.2"/>
      <point x="223.29" y="661.4"/>
      <point x="223.29" y="693.2" type="curve" smooth="yes"/>
      <point x="223.29" y="717.8"/>
      <point x="212.9325" y="733.0"/>
      <point x="190.9075" y="733.0" type="curve" smooth="yes"/>
      <point x="168.24" y="733.0"/>
      <point x="157.7875" y="715.8"/>
      <point x="155.2875" y="693.4" type="curve"/>
    </contour>
  </outline>
</glyph>
<glyph name="Pcircle" format="2">
  <advance width="695.3775"/>
  <unicode hex="24C5"/>
  <outline>
    <contour>
      <point x="83.47" y="355.0" type="curve" smooth="yes"/>
      <point x="83.47" y="543.8"/>
      <point x="194.235" y="692.0"/>
      <point x="347.2125" y="692.0" type="curve" smooth="yes"/>
      <point x="500.1425" y="692.0"/>
      <point x="611.9075" y="543.8"/>
      <point x="611.9075" y="355.0" type="curve" smooth="yes"/>
      <point x="611.9075" y="166.2"/>
      <point x="500.1425" y="18.0"/>
      <point x="347.2125" y="18.0" type="curve" smooth="yes"/>
      <point x="194.235" y="18.0"/>
      <point x="83.47" y="166.2"/>
    </contour>
    <contour>
      <point x="32.24" y="355.0" type="curve" smooth="yes"/>
      <point x="32.24" y="138.0"/>
      <point x="168.4775" y="-28.0"/>
      <point x="347.2125" y="-28.0" type="curve" smooth="yes"/>
      <point x="526.495" y="-28.0"/>
      <point x="663.185" y="138.0"/>
      <point x="663.185" y="355.0" type="curve" smooth="yes"/>
      <point x="663.185" y="572.0"/>
      <point x="526.495" y="738.0"/>
      <point x="347.2125" y="738.0" type="curve" smooth="yes"/>
      <point x="168.4775" y="738.0"/>
      <point x="32.24" y="572.0"/>
    </contour>
    <contour>
      <point x="209.405" y="153.0" type="line"/>
      <point x="370.5925" y="153.0" type="line"/>
      <point x="370.5925" y="192.0" type="line"/>
      <point x="355.1375" y="192.0" type="line" smooth="yes"/>
      <point x="339.8275" y="192.0"/>
      <point x="320.515" y="193.0"/>
      <point x="320.515" y="197.0" type="curve" smooth="yes"/>
      <point x="320.515" y="302.0" type="line"/>
      <point x="370.7825" y="302.0" type="line" smooth="yes"/>
      <point x="454.3975" y="302.0"/>
      <point x="512.495" y="352.6"/>
      <point x="512.495" y="433.0" type="curve" smooth="yes"/>
      <point x="512.495" y="511.4"/>
      <point x="458.4925" y="557.0"/>
      <point x="373.2825" y="557.0" type="curve" smooth="yes"/>
      <point x="209.405" y="557.0" type="line"/>
      <point x="209.405" y="518.0" type="line"/>
      <point x="214.2625" y="518.0" type="line" smooth="yes"/>
      <point x="236.265" y="518.0"/>
      <point x="253.195" y="514.0"/>
      <point x="253.195" y="498.0" type="curve" smooth="yes"/>
      <point x="253.195" y="212.0" type="line" smooth="yes"/>
      <point x="253.195" y="196.0"/>
      <point x="236.265" y="192.0"/>
      <point x="214.2625" y="192.0" type="curve" smooth="yes"/>
      <point x="209.405" y="192.0" type="line"/>
    </contour>
    <contour>
      <point x="370.3825" y="515.0" type="line" smooth="yes"/>
      <point x="418.53" y="515.0"/>
      <point x="443.365" y="491.4571428572"/>
      <point x="443.365" y="433.0" type="curve" smooth="yes"/>
      <point x="443.365" y="373.9506493508"/>
      <point x="418.53" y="344.0"/>
      <point x="368.335" y="344.0" type="curve" smooth="yes"/>
      <point x="320.515" y="344.0" type="line"/>
      <point x="320.515" y="515.0" type="line"/>
    </contour>
  </outline>
</glyph>
<glyph name="lozenge" format="2">
  <advance width="513.76"/>
  <unicode hex="25CA"/>
  <outline>
    <contour>
      <point x="282.4025" y="25.0" type="line"/>
      <point x="81.8225" y="365.0" type="line"/>
      <point x="81.8225" y="345.0" type="line"/>
      <point x="282.4025" y="685.0" type="line"/>
      <point x="231.66750000000002" y="685.0" type="line"/>
      <point x="431.985" y="345.0" type="line"/>
      <point x="431.985" y="365.0" type="line"/>
      <point x="231.66750000000002" y="25.0" type="line"/>
    </contour>
    <contour>
      <point x="282.255" y="710.0" type="line"/>
      <point x="231.5525" y="710.0" type="line"/>
      <point x="33.38" y="376.0" type="line"/>
      <point x="33.38" y="334.0" type="line"/>
      <point x="231.5525" y="0.0" type="line"/>
      <point x="282.255" y="0.0" type="line"/>
      <point x="480.4275" y="334.0" type="line"/>
      <point x="480.4275" y="376.0" type="line"/>
    </contour>
  </outline>
</glyph>
<glyph name="acute.ucpl" format="2">
  <advance width="412.5"/>
  <anchor x="156.0" y="694.0" name="_top"/>
  <outline>
    <contour>
      <point x="147.0275" y="834.8" type="curve" smooth="yes"/>
      <point x="143.17" y="768.6" type="line"/>
      <point x="143.17" y="750.0" type="line"/>
      <point x="171.065" y="750.0" type="line"/>
      <point x="203.065" y="808.4" type="line" smooth="yes"/>
      <point x="224.6325" y="836.4"/>
      <point x="234.10750000000002" y="857.6"/>
      <point x="234.10750000000002" y="875.6" type="curve" smooth="yes"/>
      <point x="234.10750000000002" y="898.8"/>
      <point x="217.68" y="912.0"/>
      <point x="196.1625" y="912.0" type="curve" smooth="yes"/>
      <point x="167.455" y="912.0"/>
      <point x="150.79" y="890.2"/>
    </contour>
  </outline>
</glyph>
<glyph name="breve.uc" format="2">
  <advance width="412.0"/>
  <anchor x="206.0" y="694.0" name="_top"/>
  <outline>
    <contour>
      <point x="206.0" y="759.0" type="curve" smooth="yes"/>
      <point x="136.1925" y="759.0"/>
      <point x="90.53" y="808.0"/>
      <point x="84.22" y="897.4" type="curve"/>
      <point x="139.7825" y="897.4" type="line"/>
      <point x="147.76" y="843.0"/>
      <point x="169.57" y="823.0"/>
      <point x="208.5" y="823.0" type="curve" smooth="yes"/>
      <point x="247.93" y="823.0"/>
      <point x="268.2875" y="843.0"/>
      <point x="275.86" y="897.4" type="curve"/>
      <point x="327.375" y="897.4" type="line"/>
      <point x="321.065" y="808.0"/>
      <point x="276.3075" y="759.0"/>
    </contour>
  </outline>
</glyph>
<glyph name="breve_hook" format="2">
  <advance width="421.0"/>
  <anchor x="206.0" y="525.0" name="_top"/>
  <outline>
    <contour>
      <point x="126.6975" y="829.8" type="line"/>
      <point x="129.245" y="868.4"/>
      <point x="156.53" y="901.4"/>
      <point x="209.88" y="901.4" type="curve" smooth="yes"/>
      <point x="263.78" y="901.4"/>
      <point x="294.0875" y="876.4"/>
      <point x="294.0875" y="833.0" type="curve" smooth="yes"/>
      <point x="294.0875" y="782.0"/>
      <point x="251.7775" y="762.6"/>
      <point x="203.9" y="758.0" type="curve"/>
      <point x="226.54250000000002" y="781.6" type="line"/>
      <point x="226.54250000000002" y="730.8" type="line"/>
      <point x="182.5275" y="730.8" type="line"/>
      <point x="182.5275" y="788.2" type="line"/>
      <point x="220.0025" y="791.2"/>
      <point x="236.05" y="804.0"/>
      <point x="236.05" y="831.2" type="curve" smooth="yes"/>
      <point x="236.05" y="851.6"/>
      <point x="226.8825" y="863.8"/>
      <point x="208.2625" y="863.8" type="curve" smooth="yes"/>
      <point x="190.285" y="863.8"/>
      <point x="180.9275" y="849.0"/>
      <point x="178.4275" y="829.8" type="curve"/>
    </contour>
    <contour>
      <point x="206.0" y="582.0" type="curve" smooth="yes"/>
      <point x="140.26749999999998" y="582.0"/>
      <point x="92.89" y="631.0"/>
      <point x="89.5075" y="736.0" type="curve"/>
      <point x="142.7125" y="736.0" type="line"/>
      <point x="148.2125" y="666.8"/>
      <point x="171.665" y="645.8"/>
      <point x="208.5" y="645.8" type="curve" smooth="yes"/>
      <point x="245.7875" y="645.8"/>
      <point x="268.2875" y="666.8"/>
      <point x="273.835" y="736.0" type="curve"/>
      <point x="322.9925" y="736.0" type="line"/>
      <point x="319.61" y="631.0"/>
      <point x="272.185" y="582.0"/>
    </contour>
  </outline>
</glyph>
<glyph name="breve_hook.uc" format="2">
  <advance width="420.145"/>
  <anchor x="206.0" y="724.0" name="_top"/>
  <outline>
    <contour>
      <point x="129.245" y="984.0" type="line"/>
      <point x="131.84" y="1022.6"/>
      <point x="159.0775" y="1055.6"/>
      <point x="212.475" y="1055.6" type="curve" smooth="yes"/>
      <point x="266.375" y="1055.6"/>
      <point x="296.635" y="1029.4"/>
      <point x="296.635" y="987.0" type="curve" smooth="yes"/>
      <point x="296.635" y="935.0"/>
      <point x="254.3725" y="915.2"/>
      <point x="206.4475" y="911.6" type="curve"/>
      <point x="229.09" y="935.2" type="line"/>
      <point x="229.09" y="884.0" type="line"/>
      <point x="185.075" y="884.0" type="line"/>
      <point x="185.075" y="941.8" type="line"/>
      <point x="222.55" y="943.8"/>
      <point x="238.145" y="957.0"/>
      <point x="238.145" y="985.4" type="curve" smooth="yes"/>
      <point x="238.145" y="1004.8"/>
      <point x="229.4775" y="1018.0"/>
      <point x="210.85750000000002" y="1018.0" type="curve" smooth="yes"/>
      <point x="192.4275" y="1018.0"/>
      <point x="183.475" y="1003.0"/>
      <point x="180.975" y="984.0" type="curve"/>
    </contour>
    <contour>
      <point x="206.0" y="759.0" type="curve" smooth="yes"/>
      <point x="136.1925" y="759.0"/>
      <point x="90.53" y="800.4"/>
      <point x="84.22" y="882.8" type="curve"/>
      <point x="139.7825" y="882.8" type="line"/>
      <point x="145.95" y="834.6"/>
      <point x="168.2125" y="819.8"/>
      <point x="208.5" y="819.8" type="curve" smooth="yes"/>
      <point x="249.2875" y="819.8"/>
      <point x="269.645" y="834.6"/>
      <point x="275.86" y="882.8" type="curve"/>
      <point x="327.375" y="882.8" type="line"/>
      <point x="321.065" y="800.4"/>
      <point x="276.3075" y="759.0"/>
    </contour>
  </outline>
</glyph>
<glyph name="cent.alt" format="2">
  <advance width="462.0"/>
  <outline>
    <contour>
      <point x="260.49" y="42.400000000000006" type="curve" smooth="yes"/>
      <point x="177.6" y="42.400000000000006"/>
      <point x="118.02000000000001" y="124.6"/>
      <point x="118.02000000000001" y="249.2" type="curve" smooth="yes"/>
      <point x="118.02000000000001" y="378.4"/>
      <point x="169.95749999999998" y="465.6"/>
      <point x="256.4225" y="465.6" type="curve" smooth="yes"/>
      <point x="315.4575" y="465.6"/>
      <point x="359.18" y="426.6"/>
      <point x="377.85" y="394.0" type="curve"/>
      <point x="385.68" y="415.8"/>
      <point x="373.82" y="443.0"/>
      <point x="350.18" y="443.6" type="curve"/>
      <point x="350.18" y="336.6" type="line"/>
      <point x="426.33000000000004" y="336.6" type="line"/>
      <point x="426.33000000000004" y="449.0" type="line"/>
      <point x="405.21000000000004" y="471.6"/>
      <point x="345.01750000000004" y="518.0"/>
      <point x="254.8075" y="518.0" type="curve" smooth="yes"/>
      <point x="120.1675" y="518.0"/>
      <point x="30.075" y="404.4"/>
      <point x="30.075" y="249.2" type="curve" smooth="yes"/>
      <point x="30.075" y="97.0"/>
      <point x="127.835" y="-10.0"/>
      <point x="254.57" y="-10.0" type="curve" smooth="yes"/>
      <point x="345.805" y="-10.0"/>
      <point x="398.5675" y="46.8"/>
      <point x="432.2575" y="114.8" type="curve"/>
      <point x="391.62" y="151.4" type="line"/>
      <point x="365.8325" y="102.6"/>
      <point x="332.545" y="42.400000000000006"/>
    </contour>
    <contour>
      <point x="276.89750000000004" y="496.6" type="line"/>
      <point x="276.89750000000004" y="623.0" type="line"/>
      <point x="224.2625" y="623.0" type="line"/>
      <point x="224.2625" y="490.0" type="line"/>
    </contour>
    <contour>
      <point x="224.2625" y="9.4" type="line"/>
      <point x="224.2625" y="-126.0" type="line"/>
      <point x="276.89750000000004" y="-126.0" type="line"/>
      <point x="276.89750000000004" y="16.0" type="line"/>
    </contour>
  </outline>
</glyph>
<glyph name="cent.altprop" format="2">
  <advance width="465.8475"/>
  <outline>
    <contour>
      <point x="262.485" y="42.400000000000006" type="curve" smooth="yes"/>
      <point x="178.82615196078433" y="42.400000000000006"/>
      <point x="118.78" y="124.6"/>
      <point x="118.78" y="249.2" type="curve" smooth="yes"/>
      <point x="118.78" y="378.4"/>
      <point x="171.42330128205128" y="465.6"/>
      <point x="258.3225" y="465.6" type="curve" smooth="yes"/>
      <point x="317.7375" y="465.6"/>
      <point x="361.22249999999997" y="426.6"/>
      <point x="380.1775" y="394.0" type="curve"/>
      <point x="388.10249999999996" y="415.8"/>
      <point x="376.575" y="443.0"/>
      <point x="352.935" y="443.6" type="curve"/>
      <point x="352.935" y="336.6" type="line"/>
      <point x="429.46500000000003" y="336.6" type="line"/>
      <point x="429.46500000000003" y="449.0" type="line"/>
      <point x="408.2975" y="471.6"/>
      <point x="347.44" y="518.0"/>
      <point x="257.135" y="518.0" type="curve" smooth="yes"/>
      <point x="121.11507188498402" y="518.0"/>
      <point x="30.8825" y="404.4"/>
      <point x="30.8825" y="249.2" type="curve" smooth="yes"/>
      <point x="30.8825" y="97.0"/>
      <point x="129.0770081967213" y="-10.0"/>
      <point x="256.5175" y="-10.0" type="curve" smooth="yes"/>
      <point x="348.37" y="-10.0"/>
      <point x="401.7025" y="46.8"/>
      <point x="435.39250000000004" y="114.8" type="curve"/>
      <point x="394.755" y="151.4" type="line"/>
      <point x="368.9675" y="102.6"/>
      <point x="335.0625" y="42.400000000000006"/>
    </contour>
    <contour>
      <point x="279.4625" y="496.6" type="line"/>
      <point x="279.4625" y="623.0" type="line"/>
      <point x="226.0675" y="623.0" type="line"/>
      <point x="226.0675" y="490.0" type="line"/>
    </contour>
    <contour>
      <point x="226.0675" y="9.4" type="line"/>
      <point x="226.0675" y="-126.0" type="line"/>
      <point x="279.4625" y="-126.0" type="line"/>
      <point x="279.4625" y="16.0" type="line"/>
    </contour>
  </outline>
</glyph>
<glyph name="cent.proportional" format="2">
  <advance width="465.8475"/>
  <outline>
    <contour>
      <point x="226.0675" y="623.0" type="line"/>
      <point x="226.0675" y="490.0" type="line"/>
      <point x="227.7775" y="478.8" type="line"/>
      <point x="227.7775" y="22.200000000000003" type="line"/>
      <point x="226.0675" y="7.4" type="line"/>
      <point x="226.0675" y="-126.0" type="line"/>
      <point x="279.4625" y="-126.0" type="line"/>
      <point x="279.4625" y="14.0" type="line"/>
      <point x="277.7525" y="26.200000000000003" type="line"/>
      <point x="277.7525" y="480.0" type="line"/>
      <point x="279.4625" y="496.6" type="line"/>
      <point x="279.4625" y="623.0" type="line"/>
    </contour>
    <contour>
      <point x="261.6775" y="40.400000000000006" type="curve" smooth="yes"/>
      <point x="176.65" y="40.400000000000006"/>
      <point x="116.12" y="122.6"/>
      <point x="116.12" y="248.2" type="curve" smooth="yes"/>
      <point x="116.12" y="378.4"/>
      <point x="167.77249999999998" y="465.6"/>
      <point x="257.99" y="465.6" type="curve" smooth="yes"/>
      <point x="320.255" y="465.6"/>
      <point x="364.3575" y="426.6"/>
      <point x="383.2175" y="394.0" type="curve"/>
      <point x="392.59502505414" y="415.8"/>
      <point x="382.6302077529575" y="443.0"/>
      <point x="355.2625" y="443.6" type="curve"/>
      <point x="355.2625" y="336.6" type="line"/>
      <point x="429.46500000000003" y="336.6" type="line"/>
      <point x="429.46500000000003" y="449.0" type="line"/>
      <point x="408.1075" y="471.6"/>
      <point x="347.5825" y="518.0"/>
      <point x="256.755" y="518.0" type="curve" smooth="yes"/>
      <point x="121.44999999999999" y="518.0"/>
      <point x="30.8825" y="404.4"/>
      <point x="30.8825" y="248.2" type="curve" smooth="yes"/>
      <point x="30.8825" y="95.0"/>
      <point x="129.07" y="-12.0"/>
      <point x="256.5175" y="-12.0" type="curve" smooth="yes"/>
      <point x="348.37" y="-12.0"/>
      <point x="401.7025" y="44.8"/>
      <point x="435.39250000000004" y="112.8" type="curve"/>
      <point x="394.755" y="149.4" type="line"/>
      <point x="368.876954790445" y="100.6"/>
      <point x="334.8725" y="40.400000000000006"/>
    </contour>
  </outline>
</glyph>
<glyph name="colonsign" format="2">
  <advance width="462.0"/>
  <outline>
    <contour>
      <point x="267.5425" y="700.0" type="curve" smooth="yes"/>
      <point x="114.28" y="700.0"/>
      <point x="12.879999999999999" y="559.6"/>
      <point x="12.879999999999999" y="355.0" type="curve" smooth="yes"/>
      <point x="12.879999999999999" y="150.0"/>
      <point x="113.855" y="10.0"/>
      <point x="258.95" y="10.0" type="curve" smooth="yes"/>
      <point x="365.45" y="10.0"/>
      <point x="429.7625" y="104.4"/>
      <point x="453.905" y="237.4" type="curve"/>
      <point x="403.815" y="263.0" type="line"/>
      <point x="386.005" y="145.8"/>
      <point x="342.5475" y="60.8"/>
      <point x="264.5675" y="60.8" type="curve" smooth="yes"/>
      <point x="158.44" y="60.8"/>
      <point x="94.9075" y="174.6"/>
      <point x="94.9075" y="355.0" type="curve" smooth="yes"/>
      <point x="94.9075" y="535.6"/>
      <point x="157.1069097222275" y="650.0"/>
      <point x="268.35" y="650.0" type="curve" smooth="yes"/>
      <point x="338.57" y="650.0"/>
      <point x="399.47749999999996" y="602.4"/>
      <point x="418.71500000000003" y="563.0" type="curve"/>
      <point x="424.2875" y="576.2"/>
      <point x="396.72249999999997" y="619.4"/>
      <point x="376.6525" y="621.2" type="curve"/>
      <point x="376.6525" y="506.8" type="line"/>
      <point x="454.19" y="506.8" type="line"/>
      <point x="454.19" y="626.0" type="line"/>
      <point x="432.6875" y="652.6"/>
      <point x="368.9975" y="700.0"/>
    </contour>
    <contour>
      <point x="204.2975" y="790.0" type="line"/>
      <point x="104.7" y="-120.0" type="line"/>
      <point x="149.29500000000002" y="-120.0" type="line"/>
      <point x="248.8925" y="790.0" type="line"/>
    </contour>
    <contour>
      <point x="316.3975" y="790.0" type="line"/>
      <point x="216.8475" y="-120.0" type="line"/>
      <point x="261.395" y="-120.0" type="line"/>
      <point x="360.9925" y="790.0" type="line"/>
    </contour>
  </outline>
</glyph>
<glyph name="colonsign.proportional" format="2">
  <advance width="600.52"/>
  <outline>
    <contour>
      <point x="161.4425" y="-120.0" type="line"/>
      <point x="212.08249999999998" y="-120.0" type="line"/>
      <point x="231.5125" y="55.4" type="line"/>
      <point x="232.87" y="68.0" type="line"/>
      <point x="297.3025" y="664.8" type="line"/>
      <point x="299.705" y="678.2" type="line"/>
      <point x="312.205" y="790.0" type="line"/>
      <point x="261.5175" y="790.0" type="line"/>
      <point x="247.755" y="665.6" type="line"/>
      <point x="246.7775" y="651.0" type="line"/>
      <point x="187.345" y="95.0" type="line"/>
      <point x="183.825" y="81.2" type="line"/>
    </contour>
    <contour>
      <point x="290.0425" y="-120.0" type="line"/>
      <point x="340.6825" y="-120.0" type="line"/>
      <point x="357.8025" y="32.0" type="line"/>
      <point x="358.01750000000004" y="41.0" type="line"/>
      <point x="424.8075" y="660.0" type="line"/>
      <point x="427.09000000000003" y="667.6" type="line"/>
      <point x="440.805" y="790.0" type="line"/>
      <point x="390.1175" y="790.0" type="line"/>
      <point x="377.855" y="681.4" type="line"/>
      <point x="377.14" y="671.4" type="line"/>
      <point x="309.89750000000004" y="45.6" type="line"/>
      <point x="307.6625" y="37.8" type="line"/>
    </contour>
    <contour>
      <point x="336.375" y="648.4" type="curve" smooth="yes"/>
      <point x="426.545" y="648.4"/>
      <point x="493.4325" y="599.8"/>
      <point x="515.815" y="560.6" type="curve"/>
      <point x="525.8050000000001" y="582.8"/>
      <point x="500.55" y="610.8"/>
      <point x="479.9575" y="610.0" type="curve"/>
      <point x="479.9575" y="495.8" type="line"/>
      <point x="559.97" y="495.8" type="line"/>
      <point x="559.97" y="615.2" type="line"/>
      <point x="535.61" y="640.4"/>
      <point x="462.3025" y="700.0"/>
      <point x="334.7125" y="700.0" type="curve" smooth="yes"/>
      <point x="159.19" y="700.0"/>
      <point x="42.79" y="557.1095890412"/>
      <point x="42.79" y="355.0" type="curve" smooth="yes"/>
      <point x="42.79" y="149.9561643836"/>
      <point x="162.6925" y="10.0"/>
      <point x="327.235" y="10.0" type="curve" smooth="yes"/>
      <point x="455.0625" y="10.0"/>
      <point x="538.85" y="104.0"/>
      <point x="565.9225" y="237.4" type="curve"/>
      <point x="514.5699999999999" y="264.6" type="line"/>
      <point x="491.235" y="147.0"/>
      <point x="429.995" y="62.400000000000006"/>
      <point x="334.6575" y="62.400000000000006" type="curve" smooth="yes"/>
      <point x="210.70499999999998" y="62.400000000000006"/>
      <point x="132.76749999999998" y="175.2825938568"/>
      <point x="132.76749999999998" y="355.0" type="curve" smooth="yes"/>
      <point x="132.76749999999998" y="532.1838926176"/>
      <point x="205.3725" y="648.4"/>
    </contour>
  </outline>
</glyph>
<glyph name="dollar.proportional" format="2">
  <advance width="484.8275"/>
  <outline>
    <contour>
      <point x="217.05" y="789.4" type="line"/>
      <point x="217.05" y="672.0" type="line"/>
      <point x="218.2375" y="661.6" type="line"/>
      <point x="218.2375" y="42.0" type="line"/>
      <point x="217.05" y="34.6" type="line"/>
      <point x="217.05" y="-120.0" type="line"/>
      <point x="270.445" y="-120.0" type="line"/>
      <point x="270.445" y="32.4" type="line"/>
      <point x="269.305" y="44.2" type="line"/>
      <point x="269.305" y="665.0" type="line"/>
      <point x="270.445" y="673.0" type="line"/>
      <point x="270.445" y="789.4" type="line"/>
    </contour>
    <contour>
      <point x="244.475" y="62.8" type="curve" smooth="yes"/>
      <point x="173.57" y="62.8"/>
      <point x="112.5925" y="92.8"/>
      <point x="82.83" y="151.2" type="curve"/>
      <point x="75.14" y="133.8"/>
      <point x="93.32749999999999" y="100.0"/>
      <point x="118.3975" y="92.8" type="curve"/>
      <point x="118.3975" y="211.8" type="line"/>
      <point x="35.4325" y="211.8" type="line"/>
      <point x="35.4325" y="98.6" type="line"/>
      <point x="72.38499999999999" y="52.0"/>
      <point x="149.67" y="11.2"/>
      <point x="247.975" y="11.2" type="curve" smooth="yes"/>
      <point x="362.7525" y="11.2"/>
      <point x="445.7275" y="76.0"/>
      <point x="445.7275" y="205.4" type="curve" smooth="yes"/>
      <point x="445.7275" y="327.4"/>
      <point x="356.5825" y="370.6"/>
      <point x="267.1175" y="397.2" type="curve" smooth="yes"/>
      <point x="193.685" y="421.0"/>
      <point x="126.895" y="440.6"/>
      <point x="126.895" y="530.4" type="curve" smooth="yes"/>
      <point x="126.895" y="606.2"/>
      <point x="169.1125" y="647.2"/>
      <point x="257.3575" y="647.2" type="curve" smooth="yes"/>
      <point x="321.17" y="647.2"/>
      <point x="364.17" y="610.4"/>
      <point x="387.9775" y="578.0" type="curve"/>
      <point x="393.405" y="594.2"/>
      <point x="373.9275" y="625.8"/>
      <point x="351.835" y="628.8" type="curve"/>
      <point x="351.835" y="527.8" type="line"/>
      <point x="429.77750000000003" y="527.8" type="line"/>
      <point x="429.77750000000003" y="628.6" type="line"/>
      <point x="404.7075" y="656.4"/>
      <point x="338.95" y="698.0"/>
      <point x="252.8325" y="698.0" type="curve" smooth="yes"/>
      <point x="133.265" y="698.0"/>
      <point x="56.65" y="634.8"/>
      <point x="56.65" y="523.4" type="curve" smooth="yes"/>
      <point x="56.65" y="395.2"/>
      <point x="141.6275" y="364.8"/>
      <point x="226.83499999999998" y="338.2" type="curve" smooth="yes"/>
      <point x="303.19" y="313.4"/>
      <point x="370.6975" y="292.8"/>
      <point x="370.6975" y="191.2" type="curve" smooth="yes"/>
      <point x="370.6975" y="97.6"/>
      <point x="324.9325" y="62.8"/>
    </contour>
  </outline>
</glyph>
<glyph name="dotaccentcomb" format="2">
  <anchor x="-299.1" y="526.0" name="_top"/>
  <outline>
    <contour>
      <point x="-255.59" y="626.6" type="curve" smooth="yes"/>
      <point x="-223.17000000000002" y="626.6"/>
      <point x="-200.1975" y="647.8"/>
      <point x="-200.1975" y="683.4" type="curve" smooth="yes"/>
      <point x="-200.1975" y="718.2"/>
      <point x="-223.17000000000002" y="739.4"/>
      <point x="-255.59" y="739.4" type="curve" smooth="yes"/>
      <point x="-287.51" y="739.4"/>
      <point x="-310.5775" y="718.2"/>
      <point x="-310.5775" y="683.4" type="curve" smooth="yes"/>
      <point x="-310.5775" y="647.8"/>
      <point x="-287.51" y="626.6"/>
    </contour>
  </outline>
</glyph>
<glyph name="eight.den" format="2">
  <advance width="274.885"/>
  <outline>
    <contour>
      <point x="137.4425" y="188.4" type="curve" smooth="yes"/>
      <point x="66.3325" y="188.4"/>
      <point x="17.405" y="153.6"/>
      <point x="17.405" y="94.4" type="curve" smooth="yes"/>
      <point x="17.405" y="35.8"/>
      <point x="64.67250000000149" y="-6.0"/>
      <point x="137.4425" y="-6.0" type="curve" smooth="yes"/>
      <point x="210.71299999998" y="-6.0"/>
      <point x="257.9325" y="35.8"/>
      <point x="257.9325" y="94.4" type="curve" smooth="yes"/>
      <point x="257.9325" y="153.6"/>
      <point x="208.195" y="188.4"/>
    </contour>
    <contour>
      <point x="137.4425" y="162.4" type="curve" smooth="yes"/>
      <point x="169.211484375" y="162.4"/>
      <point x="188.95" y="139.8"/>
      <point x="188.95" y="96.8" type="curve" smooth="yes"/>
      <point x="188.95" y="56.4"/>
      <point x="169.021484375" y="32.4"/>
      <point x="137.4425" y="32.4" type="curve" smooth="yes"/>
      <point x="105.816015625" y="32.4"/>
      <point x="85.935" y="56.4"/>
      <point x="85.935" y="96.8" type="curve" smooth="yes"/>
      <point x="85.935" y="139.8"/>
      <point x="104.75437500000001" y="162.4"/>
    </contour>
    <contour>
      <point x="137.4425" y="346.0" type="curve" smooth="yes"/>
      <point x="73.405" y="346.0"/>
      <point x="32.525" y="310.0"/>
      <point x="32.525" y="258.8" type="curve" smooth="yes"/>
      <point x="32.525" y="206.8"/>
      <point x="73.6425" y="175.6"/>
      <point x="137.4425" y="175.6" type="curve" smooth="yes"/>
      <point x="200.7425" y="175.6"/>
      <point x="242.8125" y="206.8"/>
      <point x="242.8125" y="258.8" type="curve" smooth="yes"/>
      <point x="242.8125" y="310.0"/>
      <point x="201.17000000000002" y="346.0"/>
    </contour>
    <contour>
      <point x="137.4425" y="198.6" type="curve" smooth="yes"/>
      <point x="111.2296568626475" y="198.6"/>
      <point x="95.89" y="217.8"/>
      <point x="95.89" y="253.0" type="curve" smooth="yes"/>
      <point x="95.89" y="288.8"/>
      <point x="111.1821568626475" y="308.6"/>
      <point x="137.4425" y="308.6" type="curve" smooth="yes"/>
      <point x="163.2325980394375" y="308.6"/>
      <point x="179.4475" y="288.8"/>
      <point x="179.4475" y="253.0" type="curve" smooth="yes"/>
      <point x="179.4475" y="217.8"/>
      <point x="163.1375980394375" y="198.6"/>
    </contour>
  </outline>
</glyph>
<glyph name="eight.lin" format="2">
  <advance width="462.0"/>
  <outline>
    <contour>
      <point x="231.0" y="-10.0" type="curve" smooth="yes"/>
      <point x="349.9225" y="-10.0"/>
      <point x="433.78" y="73.70050251256"/>
      <point x="433.78" y="192.0" type="curve" smooth="yes"/>
      <point x="433.78" y="312.8"/>
      <point x="345.47" y="387.8"/>
      <point x="231.0" y="387.8" type="curve" smooth="yes"/>
      <point x="116.53" y="387.8"/>
      <point x="28.22" y="312.8"/>
      <point x="28.22" y="192.0" type="curve" smooth="yes"/>
      <point x="28.22" y="73.70050251256"/>
      <point x="112.0775" y="-10.0"/>
    </contour>
    <contour>
      <point x="231.0" y="349.8" type="curve" smooth="yes"/>
      <point x="298.8925" y="349.8"/>
      <point x="342.425" y="293.4523489932"/>
      <point x="342.425" y="197.0" type="curve" smooth="yes"/>
      <point x="342.425" y="104.8833333332"/>
      <point x="298.7975" y="44.0"/>
      <point x="231.0" y="44.0" type="curve" smooth="yes"/>
      <point x="163.2025" y="44.0"/>
      <point x="119.575" y="104.8833333332"/>
      <point x="119.575" y="197.0" type="curve" smooth="yes"/>
      <point x="119.575" y="293.4523489932"/>
      <point x="163.10750000000002" y="349.8"/>
    </contour>
    <contour>
      <point x="231.0" y="368.8" type="curve" smooth="yes"/>
      <point x="331.83223577235003" y="368.8"/>
      <point x="403.325" y="435.8"/>
      <point x="403.325" y="543.0" type="curve" smooth="yes"/>
      <point x="403.325" y="647.2933333332"/>
      <point x="331.6621794872375" y="720.0"/>
      <point x="231.0" y="720.0" type="curve" smooth="yes"/>
      <point x="130.3378205127625" y="720.0"/>
      <point x="58.675" y="647.2933333332"/>
      <point x="58.675" y="543.0" type="curve" smooth="yes"/>
      <point x="58.675" y="435.8"/>
      <point x="130.16776422765" y="368.8"/>
    </contour>
    <contour>
      <point x="231.0" y="666.0" type="curve" smooth="yes"/>
      <point x="285.4375" y="666.0"/>
      <point x="319.8725" y="614.2707692307999"/>
      <point x="319.8725" y="534.0" type="curve" smooth="yes"/>
      <point x="319.8725" y="453.5574803148"/>
      <point x="285.4375" y="402.2"/>
      <point x="231.0" y="402.2" type="curve" smooth="yes"/>
      <point x="176.5625" y="402.2"/>
      <point x="142.1275" y="453.5574803148"/>
      <point x="142.1275" y="534.0" type="curve" smooth="yes"/>
      <point x="142.1275" y="614.2707692307999"/>
      <point x="176.5625" y="666.0"/>
    </contour>
  </outline>
</glyph>
<glyph name="f.alt" format="2">
  <advance width="323.4875"/>
  <outline>
    <contour>
      <point x="28.5075" y="508.0" type="line"/>
      <point x="28.5075" y="457.0" type="line"/>
      <point x="315.7975" y="457.0" type="line"/>
      <point x="315.7975" y="508.0" type="line"/>
    </contour>
    <contour>
      <point x="282.9675" y="0.0" type="line"/>
      <point x="282.9675" y="41.4" type="line"/>
      <point x="272.65749999999997" y="41.4" type="line" smooth="yes"/>
      <point x="230.39" y="41.4"/>
      <point x="197.1025" y="44.4"/>
      <point x="197.1025" y="51.4" type="curve" smooth="yes"/>
      <point x="197.1025" y="576.4" type="line" smooth="yes"/>
      <point x="197.1025" y="665.6"/>
      <point x="224.44" y="701.2"/>
      <point x="278.73" y="701.2" type="curve"/>
      <point x="315.8775" y="701.2"/>
      <point x="342.9525" y="685.8"/>
      <point x="357.8125" y="658.0" type="curve"/>
      <point x="370.1675" y="677.6"/>
      <point x="348.8775" y="710.4"/>
      <point x="322.07" y="714.0" type="curve"/>
      <point x="322.07" y="619.0" type="line"/>
      <point x="395.5775" y="619.0" type="line"/>
      <point x="395.5775" y="721.2" type="line"/>
      <point x="383.44" y="732.8"/>
      <point x="336.8975" y="752.0"/>
      <point x="279.0925" y="752.0" type="curve"/>
      <point x="183.6975" y="752.0"/>
      <point x="111.4425" y="691.6"/>
      <point x="111.4425" y="576.4" type="curve" smooth="yes"/>
      <point x="111.4425" y="77.4" type="line" smooth="yes"/>
      <point x="111.4425" y="48.4"/>
      <point x="85.82" y="41.4"/>
      <point x="42.457499999999996" y="41.4" type="curve" smooth="yes"/>
      <point x="33.362500000000004" y="41.4" type="line"/>
      <point x="33.362500000000004" y="0.0" type="line"/>
    </contour>
  </outline>
</glyph>
<glyph name="f_l" format="2">
  <advance width="556.1575"/>
  <outline>
    <contour>
      <point x="28.5075" y="508.0" type="line"/>
      <point x="28.5075" y="457.0" type="line"/>
      <point x="307.0925" y="457.0" type="line"/>
      <point x="307.0925" y="508.0" type="line"/>
    </contour>
    <contour>
      <point x="390.7725" y="51.4" type="line"/>
      <point x="390.7725" y="44.4"/>
      <point x="355.9575" y="41.4"/>
      <point x="334.3825" y="41.4" type="curve" smooth="yes"/>
      <point x="325.905" y="41.4" type="line"/>
      <point x="325.905" y="0.0" type="line"/>
      <point x="542.085" y="0.0" type="line"/>
      <point x="542.085" y="41.4" type="line"/>
      <point x="540.1800000000001" y="41.4" type="line" smooth="yes"/>
      <point x="503.00750000000005" y="41.4"/>
      <point x="476.52750000000003" y="48.4"/>
      <point x="476.52750000000003" y="77.4" type="curve"/>
      <point x="476.52750000000003" y="735.0" type="line"/>
      <point x="343.79" y="735.0" type="line"/>
      <point x="390.7725" y="697.4" type="line"/>
    </contour>
    <contour>
      <point x="273.305" y="0.0" type="line"/>
      <point x="273.305" y="41.4" type="line"/>
      <point x="263.1125" y="41.4" type="line" smooth="yes"/>
      <point x="225.51210526301503" y="41.4"/>
      <point x="197.1025" y="44.4"/>
      <point x="197.1025" y="51.4" type="curve" smooth="yes"/>
      <point x="197.1025" y="576.0" type="line" smooth="yes"/>
      <point x="197.1025" y="677.4"/>
      <point x="234.46500000000003" y="701.2"/>
      <point x="290.3275" y="701.2" type="curve" smooth="yes"/>
      <point x="342.2125" y="701.2"/>
      <point x="381.145" y="684.6"/>
      <point x="414.745" y="633.0" type="curve"/>
      <point x="425.225" y="701.4" type="line"/>
      <point x="393.7275" y="730.2"/>
      <point x="347.27750000000003" y="752.0"/>
      <point x="289.6425" y="752.0" type="curve" smooth="yes"/>
      <point x="198.175" y="752.0"/>
      <point x="111.4425" y="709.8"/>
      <point x="111.4425" y="576.0" type="curve" smooth="yes"/>
      <point x="111.4425" y="77.4" type="line"/>
      <point x="111.4425" y="48.4"/>
      <point x="85.82" y="41.4"/>
      <point x="42.457499999999996" y="41.4" type="curve" smooth="yes"/>
      <point x="33.362500000000004" y="41.4" type="line"/>
      <point x="33.362500000000004" y="0.0" type="line"/>
    </contour>
  </outline>
</glyph>
<glyph name="fi.alt" format="2">
  <advance width="560.23"/>
  <outline>
    <contour>
      <point x="28.5075" y="508.0" type="line"/>
      <point x="28.5075" y="457.0" type="line"/>
      <point x="389.2725" y="457.0" type="line"/>
      <point x="389.2725" y="508.0" type="line"/>
    </contour>
    <contour>
      <point x="390.7725" y="51.4" type="line" smooth="yes"/>
      <point x="390.7725" y="44.4"/>
      <point x="355.9575" y="41.4"/>
      <point x="334.3825" y="41.4" type="curve" smooth="yes"/>
      <point x="325.905" y="41.4" type="line"/>
      <point x="325.905" y="0.0" type="line"/>
      <point x="542.085" y="0.0" type="line"/>
      <point x="542.085" y="41.4" type="line"/>
      <point x="541.085" y="41.4" type="line" smooth="yes"/>
      <point x="503.9125" y="41.4"/>
      <point x="476.52750000000003" y="48.4"/>
      <point x="476.52750000000003" y="77.4" type="curve" smooth="yes"/>
      <point x="476.52750000000003" y="508.0" type="line"/>
      <point x="324.7625" y="508.0" type="line"/>
      <point x="324.7625" y="457.0" type="line"/>
      <point x="333.47749999999996" y="457.0" type="line" smooth="yes"/>
      <point x="374.0075" y="457.0"/>
      <point x="390.7725" y="441.4"/>
      <point x="390.7725" y="412.4" type="curve" smooth="yes"/>
    </contour>
    <contour>
      <point x="111.4425" y="77.4" type="line" smooth="yes"/>
      <point x="111.4425" y="48.4"/>
      <point x="85.82" y="41.4"/>
      <point x="42.457499999999996" y="41.4" type="curve" smooth="yes"/>
      <point x="33.362500000000004" y="41.4" type="line"/>
      <point x="33.362500000000004" y="0.0" type="line"/>
      <point x="273.305" y="0.0" type="line"/>
      <point x="273.305" y="41.4" type="line"/>
      <point x="263.1125" y="41.4" type="line" smooth="yes"/>
      <point x="225.655" y="41.4"/>
      <point x="197.1025" y="44.4"/>
      <point x="197.1025" y="51.4" type="curve" smooth="yes"/>
      <point x="197.1025" y="571.8" type="line" smooth="yes"/>
      <point x="197.1025" y="664.6"/>
      <point x="227.225" y="701.2"/>
      <point x="308.4225" y="701.2" type="curve" smooth="yes"/>
      <point x="364.28499999999997" y="701.2"/>
      <point x="398.5275" y="681.6"/>
      <point x="419.72249999999997" y="653.4" type="curve"/>
      <point x="432.72" y="673.4"/>
      <point x="410.97749999999996" y="710.4"/>
      <point x="384.4325" y="714.0" type="curve"/>
      <point x="384.4325" y="619.0" type="line"/>
      <point x="462.53" y="619.0" type="line"/>
      <point x="462.53" y="711.8" type="line"/>
      <point x="446.94" y="724.6"/>
      <point x="392.85" y="752.0"/>
      <point x="307.425" y="752.0" type="curve" smooth="yes"/>
      <point x="186.67000000000002" y="752.0"/>
      <point x="111.4425" y="691.0"/>
      <point x="111.4425" y="571.8" type="curve" smooth="yes"/>
    </contour>
  </outline>
</glyph>
<glyph name="florin" format="2">
  <advance width="462.0"/>
  <outline>
    <contour>
      <point x="112.8225" y="508.0" type="line"/>
      <point x="107.68" y="458.8" type="line"/>
      <point x="404.6875" y="458.8" type="line"/>
      <point x="409.83" y="508.0" type="line"/>
    </contour>
    <contour>
      <point x="218.6775" y="56.0" type="curve" smooth="yes"/>
      <point x="278.845" y="579.0" type="line" smooth="yes"/>
      <point x="288.6075" y="673.2"/>
      <point x="321.4425" y="705.2"/>
      <point x="372.9" y="705.2" type="curve" smooth="yes"/>
      <point x="400.1625" y="705.2"/>
      <point x="423.90250000000003" y="697.6"/>
      <point x="449.21500000000003" y="685.6" type="curve"/>
      <point x="453.81" y="745.0" type="line"/>
      <point x="432.405" y="757.0"/>
      <point x="399.5" y="764.0"/>
      <point x="368.4575" y="764.0" type="curve" smooth="yes"/>
      <point x="272.1775" y="764.0"/>
      <point x="210.8225" y="707.0"/>
      <point x="196.585" y="585.0" type="curve" smooth="yes"/>
      <point x="135.155" y="45.0" type="line" smooth="yes"/>
      <point x="114.56" y="-139.6"/>
      <point x="77.46249999999999" y="-177.2"/>
      <point x="35.865" y="-177.2" type="curve" smooth="yes"/>
      <point x="15.485000000000001" y="-177.2"/>
      <point x="-5.0625" y="-168.8"/>
      <point x="-20.992500000000003" y="-161.4" type="curve"/>
      <point x="-25.445" y="-220.8" type="line"/>
      <point x="-13.35" y="-228.4"/>
      <point x="9.552499999999998" y="-236.0"/>
      <point x="36.144999999999996" y="-236.0" type="curve" smooth="yes"/>
      <point x="122.35" y="-236.0"/>
      <point x="194.655" y="-155.0"/>
    </contour>
  </outline>
</glyph>
<glyph name="horncomb" format="2">
  <anchor x="-253.685" y="444.0" name="_top"/>
  <outline>
    <contour>
      <point x="-300.15250000000003" y="474.0" type="curve"/>
      <point x="-188.2875" y="473.6"/>
      <point x="-134.93" y="527.6"/>
      <point x="-134.93" y="681.0" type="curve"/>
      <point x="-207.2" y="681.0" type="line"/>
      <point x="-207.3425" y="546.2"/>
      <point x="-227.625" y="510.0"/>
      <point x="-328.7925" y="510.0" type="curve"/>
      <point x="-328.7925" y="509.0"/>
      <point x="-300.1525" y="474.8"/>
    </contour>
  </outline>
</glyph>
<glyph name="liraTurkish.proportional" format="2">
  <advance width="503.0575"/>
  <outline>
    <contour>
      <point x="33.7875" y="400.6" type="line"/>
      <point x="33.7875" y="353.0" type="line"/>
      <point x="362.475" y="537.6" type="line"/>
      <point x="362.475" y="585.2" type="line"/>
    </contour>
    <contour>
      <point x="33.7875" y="235.6" type="line"/>
      <point x="33.7875" y="188.0" type="line"/>
      <point x="362.475" y="372.6" type="line"/>
      <point x="362.475" y="420.2" type="line"/>
    </contour>
    <contour>
      <point x="248.03750000000002" y="51.6" type="curve" smooth="yes"/>
      <point x="195.7925" y="51.6" type="line"/>
      <point x="195.7925" y="630.4" type="line" smooth="yes"/>
      <point x="195.7925" y="659.4"/>
      <point x="223.5575" y="666.4"/>
      <point x="261.84749999999997" y="666.4" type="curve" smooth="yes"/>
      <point x="271.7275" y="666.4" type="line"/>
      <point x="271.7275" y="710.0" type="line"/>
      <point x="33.7875" y="710.0" type="line"/>
      <point x="33.7875" y="666.4" type="line"/>
      <point x="41.3825" y="666.4" type="line" smooth="yes"/>
      <point x="79.9825" y="666.4"/>
      <point x="108.105" y="659.4"/>
      <point x="108.105" y="630.4" type="curve" smooth="yes"/>
      <point x="108.105" y="79.6" type="line" smooth="yes"/>
      <point x="108.105" y="50.6"/>
      <point x="79.9825" y="43.6"/>
      <point x="41.3825" y="43.6" type="curve" smooth="yes"/>
      <point x="33.7875" y="43.6" type="line"/>
      <point x="33.7875" y="0.0" type="line"/>
      <point x="234.66" y="0.0" type="line" smooth="yes"/>
      <point x="390.5775" y="0.0"/>
      <point x="467.0325" y="97.6"/>
      <point x="478.72249999999997" y="280.0" type="curve"/>
      <point x="413.5" y="300.6" type="line"/>
      <point x="406.3575" y="136.6"/>
      <point x="356.0875" y="51.6"/>
    </contour>
  </outline>
</glyph>
<glyph name="manat.proportional" format="2">
  <advance width="528.455"/>
  <outline>
    <contour>
      <point x="238.3725" y="720.0" type="line"/>
      <point x="238.3725" y="150.4" type="line"/>
      <point x="289.5825" y="150.4" type="line"/>
      <point x="289.5825" y="720.0" type="line"/>
    </contour>
    <contour>
      <point x="264.2275" y="542.4" type="curve" smooth="yes"/>
      <point x="369.90000000000003" y="542.4"/>
      <point x="407.6225" y="375.6"/>
      <point x="407.6225" y="0.0" type="curve"/>
      <point x="499.83500000000004" y="0.0" type="line"/>
      <point x="499.83500000000004" y="368.6"/>
      <point x="412.96" y="590.0"/>
      <point x="264.2275" y="590.0" type="curve" smooth="yes"/>
      <point x="115.0425" y="590.0"/>
      <point x="28.62" y="368.6"/>
      <point x="28.62" y="0.0" type="curve"/>
      <point x="120.38" y="0.0" type="line"/>
      <point x="120.38" y="375.6"/>
      <point x="158.555" y="542.4"/>
    </contour>
  </outline>
</glyph>
<glyph name="one.old" format="2">
  <advance width="462.0"/>
  <outline>
    <contour>
      <point x="300.15250000000003" y="79.0" type="curve" smooth="yes"/>
      <point x="300.15250000000003" y="548.0" type="line"/>
      <point x="237.94" y="548.0" type="line"/>
      <point x="208.5825" y="496.8"/>
      <point x="149.9825" y="474.0"/>
      <point x="70.105" y="472.0" type="curve"/>
      <point x="70.105" y="418.0" type="line"/>
      <point x="143.5325" y="416.0"/>
      <point x="210.775" y="446.0"/>
      <point x="227.44" y="492.0" type="curve"/>
      <point x="230.11" y="505.0"/>
      <point x="224.60750000000002" y="505.0"/>
      <point x="213.10750000000002" y="483.0" type="curve"/>
      <point x="213.10750000000002" y="79.0" type="line" smooth="yes"/>
      <point x="213.10750000000002" y="50.0"/>
      <point x="179.3475" y="43.0"/>
      <point x="125.9175" y="43.0" type="curve" smooth="yes"/>
      <point x="84.795" y="43.0" type="line"/>
      <point x="84.795" y="0.0" type="line"/>
      <point x="426.015" y="0.0" type="line"/>
      <point x="426.015" y="43.0" type="line"/>
      <point x="394.5825" y="43.0" type="line" smooth="yes"/>
      <point x="336.7" y="43.0"/>
      <point x="300.15250000000003" y="50.0"/>
    </contour>
  </outline>
</glyph>
<glyph name="ruble.proportional" format="2">
  <advance width="497.235"/>
  <outline>
    <contour>
      <point x="41.0775" y="383.0" type="line"/>
      <point x="279.5775" y="383.0" type="line" smooth="yes"/>
      <point x="357.755" y="383.0"/>
      <point x="395.9" y="439.2"/>
      <point x="395.9" y="524.4" type="curve" smooth="yes"/>
      <point x="395.9" y="608.2"/>
      <point x="357.755" y="658.4"/>
      <point x="284.03000000000003" y="658.4" type="curve" smooth="yes"/>
      <point x="203.9175" y="658.4" type="line"/>
      <point x="203.9175" y="53.6" type="line" smooth="yes"/>
      <point x="203.9175" y="46.6"/>
      <point x="237.755" y="43.6"/>
      <point x="264.52" y="43.6" type="curve" smooth="yes"/>
      <point x="286.735" y="43.6" type="line"/>
      <point x="286.735" y="0.0" type="line"/>
      <point x="41.0775" y="0.0" type="line"/>
      <point x="41.0775" y="43.6" type="line"/>
      <point x="50.4825" y="43.6" type="line" smooth="yes"/>
      <point x="88.63" y="43.6"/>
      <point x="117.205" y="50.6"/>
      <point x="117.205" y="79.6" type="curve" smooth="yes"/>
      <point x="117.205" y="630.4" type="line" smooth="yes"/>
      <point x="117.205" y="659.4"/>
      <point x="88.63" y="666.4"/>
      <point x="50.4825" y="666.4" type="curve" smooth="yes"/>
      <point x="41.0775" y="666.4" type="line"/>
      <point x="41.0775" y="710.0" type="line"/>
      <point x="285.29" y="710.0" type="line" smooth="yes"/>
      <point x="411.0475" y="710.0"/>
      <point x="485.1625" y="637.8"/>
      <point x="485.1625" y="525.4" type="curve" smooth="yes"/>
      <point x="485.1625" y="413.8"/>
      <point x="406.4525" y="335.4"/>
      <point x="281.575" y="335.4" type="curve" smooth="yes"/>
      <point x="41.0775" y="335.4" type="line"/>
    </contour>
    <contour>
      <point x="355.14750000000004" y="179.8" type="line"/>
      <point x="41.0775" y="179.8" type="line"/>
      <point x="41.0775" y="227.4" type="line"/>
      <point x="355.14750000000004" y="227.4" type="line"/>
    </contour>
  </outline>
</glyph>
<glyph name="sterling.altprop" format="2">
  <advance width="498.4"/>
  <outline>
    <contour>
      <point x="32.05" y="367.2" type="line"/>
      <point x="32.05" y="318.0" type="line"/>
      <point x="364.6525" y="318.0" type="line"/>
      <point x="364.6525" y="367.2" type="line"/>
    </contour>
    <contour>
      <point x="32.05" y="0.0" type="line"/>
      <point x="459.1575" y="0.0" type="line"/>
      <point x="459.1575" y="205.6" type="line"/>
      <point x="408.545" y="205.6" type="line"/>
      <point x="401.045" y="106.6" type="line" smooth="yes"/>
      <point x="398.3075" y="70.6"/>
      <point x="369.47249999999997" y="63.6"/>
      <point x="299.28" y="63.6" type="curve"/>
      <point x="69.49" y="63.6" type="line"/>
      <point x="101.9925" y="53.6" type="line"/>
      <point x="173.95749999999998" y="92.6"/>
      <point x="214.7425" y="175.2"/>
      <point x="214.7425" y="251.4" type="curve" smooth="yes"/>
      <point x="214.7425" y="356.6"/>
      <point x="161.43" y="409.4"/>
      <point x="161.43" y="522.4" type="curve" smooth="yes"/>
      <point x="161.43" y="609.6"/>
      <point x="207.5325" y="664.0"/>
      <point x="283.21000000000004" y="664.0" type="curve" smooth="yes"/>
      <point x="340.4575" y="664.0"/>
      <point x="377.63" y="638.6"/>
      <point x="400.8" y="609.6" type="curve"/>
      <point x="402.6275" y="627.6"/>
      <point x="394.4825" y="649.8"/>
      <point x="371.5575" y="654.4" type="curve"/>
      <point x="371.5575" y="550.0" type="line"/>
      <point x="450.8975" y="550.0" type="line"/>
      <point x="450.8975" y="661.8" type="line"/>
      <point x="425.805" y="687.8"/>
      <point x="368.21000000000004" y="718.0"/>
      <point x="282.02250000000004" y="718.0" type="curve" smooth="yes"/>
      <point x="151.79" y="718.0"/>
      <point x="72.72" y="636.6"/>
      <point x="72.72" y="518.4" type="curve" smooth="yes"/>
      <point x="72.72" y="406.0"/>
      <point x="145.67" y="341.6"/>
      <point x="145.67" y="239.4" type="curve" smooth="yes"/>
      <point x="145.67" y="159.8"/>
      <point x="83.45" y="104.2"/>
      <point x="32.05" y="65.4" type="curve"/>
    </contour>
  </outline>
</glyph>
<glyph name="three.old" format="2">
  <advance width="462.0"/>
  <outline>
    <contour>
      <point x="222.055" y="-96.0" type="curve" smooth="yes"/>
      <point x="295.085" y="-96.0"/>
      <point x="342.7575" y="-43.0"/>
      <point x="342.7575" y="51.4" type="curve" smooth="yes"/>
      <point x="342.7575" y="140.4"/>
      <point x="305.68" y="197.8"/>
      <point x="204.0075" y="197.8" type="curve" smooth="yes"/>
      <point x="146.74" y="197.8" type="line"/>
      <point x="146.74" y="249.4" type="line"/>
      <point x="194.055" y="249.4" type="line" smooth="yes"/>
      <point x="276.13" y="249.4"/>
      <point x="324.3025" y="293.4"/>
      <point x="324.3025" y="382.0" type="curve" smooth="yes"/>
      <point x="324.3025" y="469.2"/>
      <point x="280.15250000000003" y="504.8"/>
      <point x="224.145" y="504.8" type="curve" smooth="yes"/>
      <point x="164.2075" y="504.8"/>
      <point x="124.77250000000001" y="468.0"/>
      <point x="100.50750000000001" y="423.4" type="curve"/>
      <point x="102.4375" y="458.6"/>
      <point x="113.94" y="481.0"/>
      <point x="134.10500000000002" y="484.6" type="curve"/>
      <point x="134.10500000000002" y="379.2" type="line"/>
      <point x="55.0025" y="379.2" type="line"/>
      <point x="55.0025" y="468.0" type="line"/>
      <point x="81.0475" y="509.6"/>
      <point x="143.7375" y="558.0"/>
      <point x="227.9975" y="558.0" type="curve" smooth="yes"/>
      <point x="332.5675" y="558.0"/>
      <point x="409.1825" y="493.0"/>
      <point x="409.1825" y="394.0" type="curve" smooth="yes"/>
      <point x="409.1825" y="288.4"/>
      <point x="319.78499999999997" y="220.6"/>
      <point x="201.745" y="220.6" type="curve"/>
      <point x="216.745" y="230.6" type="line"/>
      <point x="376.2375" y="230.6"/>
      <point x="430.47" y="150.8"/>
      <point x="430.47" y="51.4" type="curve" smooth="yes"/>
      <point x="430.47" y="-67.2"/>
      <point x="344.045" y="-150.0"/>
      <point x="225.3325" y="-150.0" type="curve" smooth="yes"/>
      <point x="115.765" y="-150.0"/>
      <point x="50.8125" y="-87.0"/>
      <point x="20.0" y="3.799999999999999" type="curve"/>
      <point x="63.23" y="41.2" type="line"/>
      <point x="87.94749999999999" y="-26.4"/>
      <point x="132.2375" y="-96.0"/>
    </contour>
  </outline>
</glyph>
<glyph name="two.old" format="2">
  <advance width="462.0"/>
  <outline>
    <contour>
      <point x="218.815" y="505.6" type="curve" smooth="yes"/>
      <point x="161.76" y="505.6"/>
      <point x="117.9675" y="466.0"/>
      <point x="93.7975" y="417.2" type="curve"/>
      <point x="95.72749999999999" y="455.6"/>
      <point x="107.03999999999999" y="474.8"/>
      <point x="127.6575" y="477.2" type="curve"/>
      <point x="127.6575" y="373.0" type="line"/>
      <point x="48.1025" y="373.0" type="line"/>
      <point x="48.1025" y="463.8" type="line"/>
      <point x="73.4325" y="507.0"/>
      <point x="139.765" y="558.0"/>
      <point x="221.2375" y="558.0" type="curve" smooth="yes"/>
      <point x="331.635" y="558.0"/>
      <point x="393.5625" y="498.4"/>
      <point x="393.5625" y="393.2" type="curve" smooth="yes"/>
      <point x="393.5625" y="246.6"/>
      <point x="217.0625" y="130.2"/>
      <point x="68.325" y="40.0" type="curve"/>
      <point x="61.685" y="44.400000000000006"/>
      <point x="60.8025" y="55.0"/>
      <point x="63.6125" y="63.6" type="curve"/>
      <point x="262.975" y="63.6" type="line" smooth="yes"/>
      <point x="328.6425" y="63.6"/>
      <point x="352.8575" y="69.80000000000001"/>
      <point x="357.0" y="103.4" type="curve" smooth="yes"/>
      <point x="364.35749999999996" y="170.4" type="line"/>
      <point x="415.01750000000004" y="170.4" type="line"/>
      <point x="415.01750000000004" y="0.0" type="line"/>
      <point x="35.8625" y="0.0" type="line"/>
      <point x="35.8625" y="78.4" type="line"/>
      <point x="172.365" y="175.2"/>
      <point x="305.565" y="263.8"/>
      <point x="305.565" y="395.6" type="curve" smooth="yes"/>
      <point x="305.565" y="472.2"/>
      <point x="273.965" y="505.6"/>
    </contour>
  </outline>
</glyph>
<glyph name="won.proportional" format="2">
  <advance width="818.285"/>
  <outline>
    <contour>
      <point x="24.5725" y="710.0" type="line"/>
      <point x="24.5725" y="666.4" type="line"/>
      <point x="28.762500000000003" y="666.4" type="line" smooth="yes"/>
      <point x="58.075" y="666.4"/>
      <point x="77.0525" y="663.4"/>
      <point x="83.72" y="629.4" type="curve" smooth="yes"/>
      <point x="201.68" y="0.0" type="line"/>
      <point x="301.985" y="0.0" type="line"/>
      <point x="420.0925" y="683.4" type="line"/>
      <point x="402.855" y="688.8" type="line"/>
      <point x="526.9175" y="0.0" type="line"/>
      <point x="626.13" y="0.0" type="line"/>
      <point x="735.0175" y="623.4" type="line" smooth="yes"/>
      <point x="740.9225" y="657.4"/>
      <point x="761.925" y="666.4"/>
      <point x="790.07" y="666.4" type="curve" smooth="yes"/>
      <point x="794.1175000000001" y="666.4" type="line"/>
      <point x="794.1175000000001" y="710.0" type="line"/>
      <point x="609.8225" y="710.0" type="line"/>
      <point x="609.8225" y="666.4" type="line"/>
      <point x="622.1324999999999" y="666.4" type="line" smooth="yes"/>
      <point x="651.9225" y="666.4"/>
      <point x="687.3325" y="659.4"/>
      <point x="687.3325" y="648.4" type="curve"/>
      <point x="583.1800000000001" y="19.0" type="line"/>
      <point x="596.2975" y="22.6" type="line"/>
      <point x="473.0675" y="710.0" type="line"/>
      <point x="377.475" y="710.0" type="line"/>
      <point x="259.1775" y="13.399999999999999" type="line"/>
      <point x="275.91499999999996" y="15.8" type="line"/>
      <point x="162.115" y="656.4" type="line"/>
      <point x="162.115" y="663.4"/>
      <point x="199.52499999999998" y="666.4"/>
      <point x="229.3625" y="666.4" type="curve" smooth="yes"/>
      <point x="242.98250000000002" y="666.4" type="line"/>
      <point x="242.98250000000002" y="710.0" type="line"/>
    </contour>
    <contour>
      <point x="24.5725" y="453.2" type="line"/>
      <point x="24.5725" y="405.6" type="line"/>
      <point x="156.53" y="405.6" type="line"/>
      <point x="163.45499999999998" y="405.6" type="line"/>
      <point x="347.4" y="405.6" type="line"/>
      <point x="355.755" y="453.2" type="line"/>
    </contour>
    <contour>
      <point x="474.0375" y="405.6" type="line"/>
      <point x="674.1125000000001" y="405.6" type="line"/>
      <point x="680.3025" y="405.6" type="line"/>
      <point x="794.1175000000001" y="405.6" type="line"/>
      <point x="794.1175000000001" y="453.2" type="line"/>
      <point x="466.61" y="453.2" type="line"/>
    </contour>
    <contour>
      <point x="321.77750000000003" y="240.2" type="line"/>
      <point x="511.72749999999996" y="240.2" type="line"/>
      <point x="506.49" y="287.8" type="line"/>
      <point x="330.205" y="287.8" type="line"/>
    </contour>
    <contour>
      <point x="642.6775" y="240.2" type="line"/>
      <point x="794.1175000000001" y="240.2" type="line"/>
      <point x="794.1175000000001" y="287.8" type="line"/>
      <point x="654.2025" y="287.8" type="line"/>
    </contour>
    <contour>
      <point x="189.0375" y="287.8" type="line"/>
      <point x="24.5725" y="287.8" type="line"/>
      <point x="24.5725" y="240.2" type="line"/>
      <point x="198.34750000000003" y="240.2" type="line"/>
    </contour>
  </outline>
</glyph>
<glyph name="yen.proportional" format="2">
  <advance width="508.95"/>
  <outline>
    <contour>
      <point x="58.67" y="352.0" type="line"/>
      <point x="58.67" y="304.4" type="line"/>
      <point x="452.8275" y="304.4" type="line"/>
      <point x="452.8275" y="352.0" type="line"/>
    </contour>
    <contour>
      <point x="58.67" y="220.6" type="line"/>
      <point x="58.67" y="173.0" type="line"/>
      <point x="452.8275" y="173.0" type="line"/>
      <point x="452.8275" y="220.6" type="line"/>
    </contour>
    <contour>
      <point x="11.07" y="710.0" type="line"/>
      <point x="11.07" y="666.4" type="line"/>
      <point x="15.76" y="666.4" type="line" smooth="yes"/>
      <point x="39.214999999999996" y="666.4"/>
      <point x="56.6225" y="665.8"/>
      <point x="69.3375" y="640.4" type="curve" smooth="yes"/>
      <point x="229.8725" y="318.0" type="line"/>
      <point x="282.815" y="318.0" type="line"/>
      <point x="432.66" y="625.4" type="line" smooth="yes"/>
      <point x="450.28" y="661.6"/>
      <point x="469.6875" y="666.4"/>
      <point x="493.7375" y="666.4" type="curve" smooth="yes"/>
      <point x="497.88" y="666.4" type="line"/>
      <point x="497.88" y="710.0" type="line"/>
      <point x="317.72749999999996" y="710.0" type="line"/>
      <point x="317.72749999999996" y="666.4" type="line"/>
      <point x="329.1825" y="666.4" type="line" smooth="yes"/>
      <point x="355.85249999999996" y="666.4"/>
      <point x="387.095" y="659.4"/>
      <point x="387.095" y="648.4" type="curve"/>
      <point x="253.56" y="357.2" type="line"/>
      <point x="292.105" y="359.2" type="line"/>
      <point x="148.3525" y="656.4" type="line"/>
      <point x="148.3525" y="663.4"/>
      <point x="180.7625" y="666.4"/>
      <point x="205.9325" y="666.4" type="curve" smooth="yes"/>
      <point x="219.07750000000001" y="666.4" type="line"/>
      <point x="219.07750000000001" y="710.0" type="line"/>
    </contour>
    <contour>
      <point x="131.315" y="0.0" type="line"/>
      <point x="380.23" y="0.0" type="line"/>
      <point x="380.23" y="43.6" type="line"/>
      <point x="366.46750000000003" y="43.6" type="line" smooth="yes"/>
      <point x="327.915" y="43.6"/>
      <point x="299.7925" y="50.6"/>
      <point x="299.7925" y="79.6" type="curve" smooth="yes"/>
      <point x="299.7925" y="360.6" type="line"/>
      <point x="212.205" y="360.6" type="line"/>
      <point x="212.205" y="79.6" type="line" smooth="yes"/>
      <point x="212.205" y="50.6"/>
      <point x="183.63" y="43.6"/>
      <point x="145.07750000000001" y="43.6" type="curve" smooth="yes"/>
      <point x="131.315" y="43.6" type="line"/>
    </contour>
  </outline>
</glyph>
<glyph name="zero.slashlin" format="2">
  <advance width="462.0"/>
  <outline>
    <contour>
      <point x="351.3875" y="530.2" type="line"/>
      <point x="94.37" y="226.0" type="line"/>
      <point x="113.8275" y="179.6" type="line"/>
      <point x="368.5825" y="480.8" type="line"/>
    </contour>
    <contour>
      <point x="231.0" y="-10.2" type="curve" smooth="yes"/>
      <point x="354.6175" y="-10.2"/>
      <point x="438.52" y="136.8"/>
      <point x="438.52" y="355.0" type="curve" smooth="yes"/>
      <point x="438.52" y="574.0"/>
      <point x="354.6175" y="720.0"/>
      <point x="231.0" y="720.0" type="curve" smooth="yes"/>
      <point x="107.3825" y="720.0"/>
      <point x="23.48" y="574.0"/>
      <point x="23.48" y="355.0" type="curve" smooth="yes"/>
      <point x="23.48" y="136.8"/>
      <point x="107.3825" y="-10.2"/>
    </contour>
    <contour>
      <point x="231.0" y="43.8" type="curve" smooth="yes"/>
      <point x="154.6574358974359" y="43.8"/>
      <point x="112.2175" y="162.4"/>
      <point x="112.2175" y="355.0" type="curve" smooth="yes"/>
      <point x="112.2175" y="547.2"/>
      <point x="154.6574358974359" y="666.0"/>
      <point x="231.0" y="666.0" type="curve" smooth="yes"/>
      <point x="306.5447435897436" y="666.0"/>
      <point x="349.7825" y="547.2"/>
      <point x="349.7825" y="355.0" type="curve" smooth="yes"/>
      <point x="349.7825" y="162.2"/>
      <point x="306.4375641025641" y="43.8"/>
    </contour>
  </outline>
</glyph>
